<?xml version="1.0" standalone="no"?>
<!DOCTYPE svg PUBLIC "-//W3C//DTD SVG 20010904//EN"
 "http://www.w3.org/TR/2001/REC-SVG-20010904/DTD/svg10.dtd">
<svg version="1.0" xmlns="http://www.w3.org/2000/svg"
 width="700.000000pt" height="700.000000pt" viewBox="0 0 700.000000 700.000000"
 preserveAspectRatio="xMidYMid meet">
<metadata>
Created by potrace 1.14, written by Peter Selinger 2001-2017
</metadata>
<g transform="translate(0.000000,700.000000) scale(0.100000,-0.100000)"
fill="#000000" stroke="none">
<path d="M3310 6774 c-226 -16 -492 -65 -660 -121 -135 -45 -301 -130 -367
-188 l-51 -45 -304 0 c-175 0 -329 -5 -364 -11 -149 -27 -277 -125 -347 -267
-42 -85 -42 -86 -42 -198 l0 -112 -57 -5 c-122 -11 -242 -97 -301 -216 -31
-63 -32 -70 -35 -213 l-4 -148 -106 0 c-123 0 -169 -10 -213 -47 -55 -47 -69
-92 -69 -229 l0 -121 -63 -31 c-132 -65 -235 -205 -293 -399 -24 -78 -27 -105
-27 -238 0 -176 17 -257 85 -395 51 -105 153 -212 240 -253 l56 -27 4 -134 c3
-131 4 -135 33 -177 48 -68 89 -83 233 -88 l122 -3 0 -969 0 -969 -110 0 c-60
0 -133 -5 -162 -11 -162 -35 -280 -158 -308 -322 -16 -89 -8 -476 11 -530 19
-55 63 -94 121 -106 70 -16 6267 -15 6338 0 59 13 100 49 119 105 18 53 27
448 12 528 -24 128 -94 229 -198 284 -76 40 -141 52 -273 52 l-110 0 0 969 0
969 123 3 c143 5 184 20 232 88 29 41 30 46 33 177 l4 134 64 31 c130 64 245
225 296 414 31 115 30 336 -1 450 -54 198 -162 350 -298 417 l-63 31 0 121 c0
137 -14 182 -69 229 -44 37 -90 47 -213 47 l-106 0 -4 148 c-3 143 -4 150 -35
213 -59 119 -179 205 -301 216 l-57 5 0 112 c0 112 0 113 -42 198 -70 142
-198 240 -347 267 -35 6 -189 11 -364 11 l-304 0 -50 44 c-67 58 -236 145
-368 189 -124 41 -306 81 -475 102 -118 15 -456 27 -565 19z m-991 -1724 c124
-13 210 -39 322 -96 209 -108 365 -297 435 -529 24 -80 27 -107 28 -240 1
-172 -16 -250 -84 -390 -111 -227 -334 -407 -580 -465 -104 -24 -278 -27 -384
-5 -315 65 -569 304 -661 621 -149 514 212 1046 750 1104 39 4 71 8 71 9 1 0
47 -4 103 -9z m2651 -21 c267 -61 505 -267 605 -523 49 -125 59 -183 59 -331
-1 -122 -5 -152 -28 -230 -96 -319 -348 -555 -661 -620 -107 -22 -280 -20
-385 5 -246 58 -469 238 -580 465 -68 139 -85 217 -84 390 0 134 3 159 28 240
138 453 582 709 1046 604z m281 -2513 c202 -43 353 -205 382 -410 33 -229
-111 -456 -336 -528 -61 -20 -88 -20 -1797 -20 -1709 0 -1736 0 -1797 20 -242
77 -390 337 -328 576 38 146 131 261 260 323 40 19 95 38 122 43 26 4 809 8
1738 9 1415 0 1701 -2 1756 -13z"/>
<path d="M2106 4694 c-178 -43 -325 -187 -380 -373 -21 -71 -21 -211 0 -282
68 -230 278 -389 512 -389 290 1 526 239 526 530 0 345 -320 596 -658 514z"/>
<path d="M4631 4694 c-290 -78 -461 -384 -373 -670 66 -217 280 -374 507 -374
233 0 442 160 509 389 21 71 21 211 0 282 -56 188 -202 331 -385 374 -80 18
-187 18 -258 -1z"/>
</g>
</svg>
