<?xml version="1.0" standalone="no"?>
<!DOCTYPE svg PUBLIC "-//W3C//DTD SVG 20010904//EN"
 "http://www.w3.org/TR/2001/REC-SVG-20010904/DTD/svg10.dtd">
<svg version="1.0" xmlns="http://www.w3.org/2000/svg"
 width="700.000000pt" height="700.000000pt" viewBox="0 0 700.000000 700.000000"
 preserveAspectRatio="xMidYMid meet">
<metadata>
Created by potrace 1.14, written by Peter Selinger 2001-2017
</metadata>
<g transform="translate(0.000000,700.000000) scale(0.100000,-0.100000)"
fill="#000000" stroke="none">
<path d="M3235 6994 c-632 -51 -1148 -231 -1452 -509 -71 -65 -72 -65 -130
-65 -126 0 -253 -54 -348 -148 -96 -97 -156 -256 -140 -378 l6 -52 -63 -11
c-84 -15 -159 -53 -218 -111 -87 -88 -119 -190 -120 -382 l0 -86 -128 -4
c-116 -3 -132 -5 -164 -27 -19 -13 -46 -40 -59 -59 -22 -32 -24 -47 -27 -171
l-3 -136 -61 -29 c-236 -110 -379 -482 -314 -818 43 -220 163 -402 314 -472
l62 -30 0 -122 c0 -133 7 -164 48 -207 52 -55 90 -67 217 -67 l115 0 0 -969 0
-969 -138 -4 c-114 -4 -147 -8 -197 -28 -83 -32 -182 -131 -216 -215 -23 -58
-24 -68 -24 -325 0 -263 0 -265 25 -315 16 -31 38 -57 60 -70 35 -20 44 -20
3220 -20 3176 0 3185 0 3220 20 22 13 44 39 60 70 25 50 25 52 25 315 0 257
-1 267 -24 325 -34 84 -133 183 -216 215 -50 20 -83 24 -197 28 l-138 4 0 969
0 969 115 0 c127 0 165 12 217 67 41 43 48 74 48 207 l0 122 62 30 c195 91
328 352 328 644 0 292 -134 555 -329 647 l-60 28 -3 136 c-3 124 -5 139 -27
171 -13 19 -40 46 -59 59 -32 22 -48 24 -164 27 l-128 4 0 86 c-1 192 -33 294
-120 382 -59 58 -134 96 -219 111 l-63 11 7 47 c9 68 -12 177 -50 256 -78 164
-257 275 -440 275 -55 0 -64 3 -91 31 -240 251 -712 444 -1274 520 -140 19
-611 34 -745 23z m-828 -1960 c169 -35 301 -104 426 -223 125 -119 204 -252
248 -416 28 -104 31 -306 6 -408 -151 -611 -852 -874 -1362 -512 -244 173
-386 491 -355 794 22 205 106 380 254 526 129 127 267 203 431 238 94 20 258
21 352 1z m2531 0 c235 -48 457 -207 578 -414 165 -281 154 -654 -27 -922
-202 -299 -553 -442 -905 -369 -97 20 -229 76 -311 132 -121 83 -234 215 -298
350 -59 125 -78 214 -78 369 0 154 19 244 77 367 97 203 276 372 477 447 149
56 336 71 487 40z m-2608 -2994 l0 -480 -267 0 c-148 0 -278 3 -290 6 l-23 6
0 467 c0 257 3 471 7 474 3 4 134 7 290 7 l283 0 0 -480z m970 0 l0 -480 -290
0 -290 0 0 480 0 480 290 0 290 0 0 -480z m980 0 l0 -480 -290 0 -290 0 0 480
0 480 290 0 290 0 0 -480z m968 4 l2 -472 -22 -6 c-13 -3 -143 -6 -290 -6
l-268 0 0 480 0 480 288 -2 287 -3 3 -471z"/>
<path d="M2075 4687 c-391 -130 -498 -628 -195 -900 164 -148 393 -178 598
-80 85 41 193 153 237 244 115 243 35 525 -190 675 -83 56 -156 77 -275 81
-89 3 -116 0 -175 -20z"/>
<path d="M4630 4696 c-154 -44 -271 -140 -341 -281 -104 -212 -65 -441 104
-610 334 -332 901 -97 901 375 0 237 -150 439 -378 509 -78 24 -213 27 -286 7z"/>
</g>
</svg>
