<?xml version="1.0" standalone="no"?>
<!DOCTYPE svg PUBLIC "-//W3C//DTD SVG 20010904//EN"
 "http://www.w3.org/TR/2001/REC-SVG-20010904/DTD/svg10.dtd">
<svg version="1.0" xmlns="http://www.w3.org/2000/svg"
 width="700.000000pt" height="700.000000pt" viewBox="0 0 700.000000 700.000000"
 preserveAspectRatio="xMidYMid meet">
<metadata>
Created by potrace 1.14, written by Peter Selinger 2001-2017
</metadata>
<g transform="translate(0.000000,700.000000) scale(0.100000,-0.100000)"
fill="#000000" stroke="none">
<path d="M2527 6614 c-4 -4 -7 -180 -7 -391 l0 -383 -290 0 -290 0 0 -195 0
-195 -195 0 -195 0 0 -195 0 -195 -195 0 -195 0 0 -680 0 -680 -385 0 -385 0
0 1070 0 1070 -195 0 -195 0 0 -1075 0 -1075 190 0 190 0 2 -192 3 -193 388
-3 387 -2 0 -680 0 -680 390 0 390 0 0 -480 0 -480 -387 -2 -388 -3 -3 -393
-2 -392 395 0 395 0 0 390 0 390 485 0 485 0 0 485 0 485 580 0 580 0 0 -485
0 -485 485 0 485 0 0 -390 0 -390 395 0 395 0 -2 393 -3 392 -387 3 -388 2 0
480 0 480 390 0 390 0 0 680 0 680 388 2 387 3 3 193 2 192 190 0 190 0 0
1075 0 1075 -195 0 -195 0 0 -1070 0 -1070 -385 0 -385 0 0 680 0 680 -195 0
-195 0 0 195 0 195 -195 0 -195 0 0 195 0 195 -290 0 -290 0 -2 388 -3 387
-195 0 -195 0 -3 -387 -2 -388 -580 0 -580 0 -2 388 -3 387 -191 3 c-104 1
-193 -1 -197 -4z m583 -2919 l0 -775 -385 0 -385 0 0 775 0 775 385 0 385 0 0
-775z m1550 0 l0 -775 -385 0 -385 0 0 775 0 775 385 0 385 0 0 -775z"/>
</g>
</svg>
