<?xml version="1.0" standalone="no"?>
<!DOCTYPE svg PUBLIC "-//W3C//DTD SVG 20010904//EN"
 "http://www.w3.org/TR/2001/REC-SVG-20010904/DTD/svg10.dtd">
<svg version="1.0" xmlns="http://www.w3.org/2000/svg"
 width="700.000000pt" height="700.000000pt" viewBox="0 0 700.000000 700.000000"
 preserveAspectRatio="xMidYMid meet">
<metadata>
Created by potrace 1.14, written by Peter Selinger 2001-2017
</metadata>
<g transform="translate(0.000000,700.000000) scale(0.100000,-0.100000)"
fill="#000000" stroke="none">
<path d="M3278 6660 c-93 -16 -180 -53 -266 -110 -109 -72 -126 -81 -237 -120
-121 -42 -556 -151 -627 -157 -53 -4 -60 -2 -86 24 -29 29 -49 74 -77 175 -18
68 -40 86 -114 95 -49 6 -54 4 -169 -65 -244 -146 -448 -307 -668 -526 -140
-141 -324 -352 -324 -373 0 -21 48 -53 79 -53 42 0 134 49 201 106 41 35 59
44 89 44 91 0 191 -63 231 -145 17 -36 23 -70 27 -165 7 -134 -6 -232 -44
-354 -40 -128 -22 -184 139 -421 52 -77 111 -168 131 -202 52 -86 144 -168
209 -188 28 -8 67 -15 85 -15 19 0 61 -9 95 -21 184 -62 318 -177 318 -273 1
-103 67 -176 297 -329 87 -57 203 -141 258 -185 111 -91 203 -143 285 -162
108 -25 169 -65 338 -223 68 -64 140 -123 160 -133 21 -9 66 -37 102 -62 36
-25 86 -60 112 -78 l47 -32 -48 -64 c-146 -194 -225 -342 -224 -417 1 -65 36
-149 103 -249 97 -145 157 -199 296 -271 135 -68 195 -121 213 -187 26 -95 6
-345 -43 -529 -33 -124 -67 -197 -132 -281 -30 -39 -70 -107 -90 -150 -38 -82
-96 -288 -87 -311 3 -8 18 -20 34 -28 90 -47 177 8 528 334 155 144 214 191
370 295 331 221 608 461 663 577 15 31 41 112 58 180 54 221 114 306 290 414
118 72 192 129 248 188 72 79 60 96 -107 147 -58 17 -135 45 -172 62 -80 35
-90 49 -173 227 -160 342 -222 388 -574 425 -78 9 -156 23 -172 31 -16 8 -45
41 -65 74 -41 66 -65 81 -134 81 -65 0 -126 -19 -341 -108 -209 -87 -260 -124
-294 -217 -10 -27 -22 -54 -27 -59 -19 -21 -235 66 -338 136 -129 90 -122 143
32 244 118 77 151 116 110 128 -10 2 -49 8 -88 11 -38 4 -92 14 -120 22 -45
15 -56 15 -136 -2 -111 -22 -148 -16 -205 37 -68 63 -77 107 -68 329 6 160 9
184 28 212 28 42 91 72 210 101 154 39 196 41 249 18 58 -26 76 -60 87 -167 9
-87 24 -127 58 -158 27 -25 54 -18 70 16 11 23 12 41 3 91 -14 82 -13 172 2
216 7 20 64 116 126 215 63 99 161 255 218 347 153 247 186 268 349 227 78
-19 114 -21 284 -20 155 1 198 4 209 16 12 12 13 26 3 92 -24 157 -12 236 47
294 27 27 48 38 82 43 46 7 141 -4 209 -24 43 -12 90 -13 90 -1 0 11 -51 72
-162 195 -48 53 -97 115 -110 138 -29 53 -74 84 -135 93 -104 15 -157 54 -205
150 -51 101 -133 220 -191 277 -67 66 -161 118 -211 118 -57 0 -62 -23 -41
-180 18 -142 15 -202 -15 -260 -22 -42 -83 -102 -127 -124 -90 -45 -340 -47
-436 -3 -123 56 -154 182 -80 319 41 76 116 137 255 209 231 119 300 234 174
289 -57 26 -147 44 -341 70 -88 11 -207 32 -265 46 -114 28 -256 38 -332 24z"/>
</g>
</svg>
