<?xml version="1.0" standalone="no"?>
<!DOCTYPE svg PUBLIC "-//W3C//DTD SVG 20010904//EN"
 "http://www.w3.org/TR/2001/REC-SVG-20010904/DTD/svg10.dtd">
<svg version="1.0" xmlns="http://www.w3.org/2000/svg"
 width="700.000000pt" height="700.000000pt" viewBox="0 0 700.000000 700.000000"
 preserveAspectRatio="xMidYMid meet">
<metadata>
Created by potrace 1.14, written by Peter Selinger 2001-2017
</metadata>
<g transform="translate(0.000000,700.000000) scale(0.100000,-0.100000)"
fill="#000000" stroke="none">
<path d="M3207 6640 c-83 -25 -108 -37 -214 -107 -130 -85 -256 -130 -573
-204 -74 -17 -166 -40 -203 -51 -137 -41 -186 1 -237 199 -13 53 -46 79 -109
87 -47 6 -54 4 -138 -45 -327 -192 -672 -485 -916 -779 -100 -121 -111 -145
-76 -173 43 -35 128 -5 239 85 56 45 71 53 106 52 84 -2 200 -77 230 -150 42
-101 37 -321 -11 -488 -47 -162 -35 -201 132 -452 55 -82 112 -170 127 -196
72 -124 168 -193 286 -204 83 -9 176 -43 266 -100 111 -69 164 -140 164 -219
0 -51 31 -105 93 -161 51 -47 78 -66 277 -197 47 -31 123 -88 170 -127 107
-90 179 -133 255 -155 161 -46 188 -63 370 -231 73 -67 155 -133 183 -147 28
-14 87 -52 131 -84 44 -32 87 -63 97 -69 16 -9 10 -21 -58 -114 -146 -199
-204 -315 -196 -398 9 -91 94 -240 208 -365 53 -57 80 -76 180 -128 126 -64
191 -117 218 -177 22 -50 21 -234 -2 -377 -34 -208 -91 -363 -165 -449 -70
-80 -138 -238 -172 -399 -12 -55 -11 -59 10 -80 16 -16 33 -22 65 -21 80 2
184 75 416 293 210 198 250 230 397 326 283 186 554 407 647 529 51 68 72 118
103 251 32 139 77 237 141 301 27 27 100 81 161 119 123 77 217 151 256 204
44 61 41 64 -128 118 -127 40 -213 76 -240 101 -11 9 -62 105 -115 212 -86
176 -102 202 -161 261 -96 95 -124 104 -471 148 -99 13 -120 25 -173 104 -50
75 -86 87 -192 64 -89 -19 -431 -159 -485 -198 -28 -20 -49 -50 -74 -104 -28
-57 -41 -75 -56 -75 -67 0 -288 105 -366 175 -84 73 -62 121 107 235 128 87
125 101 -22 113 -41 4 -92 14 -114 22 -35 15 -44 15 -108 1 -111 -25 -158 -22
-208 17 -80 61 -102 141 -88 326 5 64 6 128 3 144 -8 38 28 107 69 134 43 27
105 48 218 73 113 26 175 26 216 0 48 -29 63 -60 77 -162 15 -106 35 -154 73
-171 21 -10 27 -8 40 8 12 16 13 36 7 105 -17 181 -9 218 72 345 25 38 97 151
159 250 234 372 238 377 285 407 39 26 52 29 100 25 30 -3 88 -12 129 -21 59
-13 110 -16 260 -12 102 3 188 5 190 5 2 1 0 45 -5 99 -16 188 1 265 67 313
30 21 45 24 119 24 49 0 116 -8 158 -19 40 -10 76 -16 79 -12 12 11 -17 50
-124 166 -58 63 -119 139 -135 168 -38 66 -56 78 -141 92 -106 19 -149 54
-215 175 -71 131 -128 210 -196 272 -67 61 -135 96 -190 97 l-41 1 2 -80 c1
-44 3 -134 5 -200 3 -116 2 -122 -24 -166 -33 -56 -76 -94 -138 -123 -40 -19
-64 -21 -215 -21 -155 0 -173 2 -210 22 -73 39 -125 114 -125 181 0 49 27 123
66 179 44 64 123 123 253 188 100 50 190 125 211 175 10 25 10 34 -5 56 -33
51 -128 76 -423 114 -89 12 -193 31 -230 42 -102 31 -314 35 -405 8z"/>
</g>
</svg>
