<?xml version="1.0" standalone="no"?>
<!DOCTYPE svg PUBLIC "-//W3C//DTD SVG 20010904//EN"
 "http://www.w3.org/TR/2001/REC-SVG-20010904/DTD/svg10.dtd">
<svg version="1.0" xmlns="http://www.w3.org/2000/svg"
 width="700.000000pt" height="700.000000pt" viewBox="0 0 700.000000 700.000000"
 preserveAspectRatio="xMidYMid meet">
<metadata>
Created by potrace 1.14, written by Peter Selinger 2001-2017
</metadata>
<g transform="translate(0.000000,700.000000) scale(0.100000,-0.100000)"
fill="#000000" stroke="none">
<path d="M3373 6986 c-175 -40 -328 -166 -403 -331 -30 -65 -50 -146 -50 -200
l0 -35 -400 0 c-255 0 -418 -4 -452 -11 -167 -35 -292 -169 -315 -335 l-6 -44
-317 0 c-289 0 -324 -2 -381 -20 -112 -35 -204 -122 -251 -237 l-23 -58 -3
-2655 c-2 -1838 1 -2676 8 -2724 20 -131 108 -248 228 -304 l57 -27 2435 0
2435 0 57 27 c126 59 210 175 228 315 7 52 10 948 8 2723 l-3 2645 -23 58
c-47 115 -139 202 -251 237 -57 18 -92 20 -381 20 l-317 0 -6 44 c-23 167
-147 300 -315 335 -34 7 -197 11 -451 11 l-398 0 -6 64 c-20 215 -176 409
-387 482 -91 32 -227 40 -317 20z m-1623 -1736 l0 -190 1750 0 1750 0 0 190 0
190 118 0 c93 0 126 -4 158 -19 53 -24 91 -74 104 -137 7 -34 10 -754 8 -2299
-3 -2227 -3 -2250 -23 -2289 -11 -22 -37 -54 -58 -70 l-39 -31 -2018 0 -2018
0 -39 31 c-21 16 -47 48 -58 70 -20 39 -20 62 -23 2289 -2 1545 1 2265 8 2299
13 63 51 113 104 137 32 15 65 19 159 19 l117 0 0 -190z"/>
<path d="M1838 4441 c-137 -87 -106 -306 50 -351 26 -8 320 -10 954 -8 l916 3
44 30 c119 83 116 250 -6 329 l-40 26 -936 0 -936 0 -46 -29z"/>
<path d="M1890 3688 c-52 -15 -95 -52 -120 -103 -45 -94 -7 -211 85 -259 l40
-21 1605 0 1605 0 40 21 c22 11 54 40 70 63 26 37 30 51 30 111 0 60 -4 74
-30 111 -16 23 -48 52 -70 63 l-40 21 -1590 2 c-1036 1 -1602 -2 -1625 -9z"/>
<path d="M1870 2904 c-144 -63 -163 -262 -32 -345 l46 -29 1616 0 1616 0 46
29 c132 84 112 284 -34 346 -33 13 -215 15 -1630 15 -1400 -1 -1597 -3 -1628
-16z"/>
<path d="M1860 2118 c-24 -13 -58 -40 -74 -61 -28 -35 -31 -45 -31 -112 0 -67
3 -76 31 -111 16 -21 43 -47 58 -58 27 -21 29 -21 1629 -24 881 -1 1617 0
1635 3 40 7 110 68 129 112 29 71 8 167 -49 220 -60 56 40 53 -1691 53 l-1593
0 -44 -22z"/>
<path d="M3225 1346 c-35 -15 -92 -76 -106 -113 -24 -63 1 -163 52 -210 60
-55 23 -53 1009 -53 799 0 915 2 948 15 147 62 166 255 34 346 l-36 24 -935 2
c-758 2 -942 0 -966 -11z"/>
</g>
</svg>
