<svg xmlns="http://www.w3.org/2000/svg" version="1.1" xmlns:xlink="http://www.w3.org/1999/xlink" xmlns:svgjs="http://svgjs.com/svgjs" width="500" height="500" preserveAspectRatio="none" viewBox="0 0 500 500">
    <g mask="url(&quot;#SvgjsMask1181&quot;)" fill="none">
        <g mask="url(&quot;#SvgjsMask1182&quot;)">
            <path d="M467.5 8.5L433.5 8.5L416.5 25.5L416.5 93.5L467.5 144.5L467.5 212.5L433.5 246.5L382.5 246.5" stroke-width="2.83" stroke="rgba(0, 0, 0, 0.07)"></path>
            <path d="M463.25 8.5 a4.25 4.25 0 1 0 8.5 0 a4.25 4.25 0 1 0 -8.5 0zM378.25 246.5 a4.25 4.25 0 1 0 8.5 0 a4.25 4.25 0 1 0 -8.5 0z" fill="rgba(0, 0, 0, 0.07)"></path>
            <path d="M484.5 433.5L161.5 110.5" stroke-width="2.83" stroke="rgba(0, 0, 0, 0.07)"></path>
            <path d="M480.25 433.5 a4.25 4.25 0 1 0 8.5 0 a4.25 4.25 0 1 0 -8.5 0zM157.25 110.5 a4.25 4.25 0 1 0 8.5 0 a4.25 4.25 0 1 0 -8.5 0z" fill="rgba(0, 0, 0, 0.07)"></path>
            <path d="M501.5 331.5L399.5 331.5L178.5 110.5" stroke-width="2.83" stroke="rgba(0, 0, 0, 0.07)"></path>
            <path d="M497.25 331.5 a4.25 4.25 0 1 0 8.5 0 a4.25 4.25 0 1 0 -8.5 0zM174.25 110.5 a4.25 4.25 0 1 0 8.5 0 a4.25 4.25 0 1 0 -8.5 0z" fill="rgba(0, 0, 0, 0.07)"></path>
            <path d="M348.5 484.5L246.5 382.5L110.5 382.5L25.5 297.5" stroke-width="2.83" stroke="rgba(0, 0, 0, 0.07)"></path>
            <path d="M344.25 484.5 a4.25 4.25 0 1 0 8.5 0 a4.25 4.25 0 1 0 -8.5 0zM21.25 297.5 a4.25 4.25 0 1 0 8.5 0 a4.25 4.25 0 1 0 -8.5 0z" fill="rgba(0, 0, 0, 0.07)"></path>
            <path d="M212.5 59.5L178.5 93.5L110.5 93.5L8.5 195.5L8.5 246.5L59.5 297.5L76.5 297.5" stroke-width="2.83" stroke="rgba(0, 0, 0, 0.07)"></path>
            <path d="M208.25 59.5 a4.25 4.25 0 1 0 8.5 0 a4.25 4.25 0 1 0 -8.5 0zM72.25 297.5 a4.25 4.25 0 1 0 8.5 0 a4.25 4.25 0 1 0 -8.5 0z" fill="rgba(0, 0, 0, 0.07)"></path>
            <path d="M93.5 195.5L93.5 127.5L110.5 110.5L144.5 110.5L263.5 229.5L263.5 314.5" stroke-width="2.83" stroke="rgba(0, 0, 0, 0.07)"></path>
            <path d="M89.25 195.5 a4.25 4.25 0 1 0 8.5 0 a4.25 4.25 0 1 0 -8.5 0zM259.25 314.5 a4.25 4.25 0 1 0 8.5 0 a4.25 4.25 0 1 0 -8.5 0z" fill="rgba(0, 0, 0, 0.07)"></path>
            <path d="M127.5 331.5L110.5 348.5L93.5 348.5L59.5 314.5" stroke-width="2.83" stroke="rgba(0, 0, 0, 0.07)"></path>
            <path d="M123.25 331.5 a4.25 4.25 0 1 0 8.5 0 a4.25 4.25 0 1 0 -8.5 0zM55.25 314.5 a4.25 4.25 0 1 0 8.5 0 a4.25 4.25 0 1 0 -8.5 0z" fill="rgba(0, 0, 0, 0.07)"></path>
            <path d="M314.5 297.5L331.5 297.5L382.5 348.5L382.5 382.5L331.5 433.5L331.5 450.5L382.5 501.5L484.5 501.5" stroke-width="2.83" stroke="rgba(0, 0, 0, 0.07)"></path>
            <path d="M310.25 297.5 a4.25 4.25 0 1 0 8.5 0 a4.25 4.25 0 1 0 -8.5 0zM480.25 501.5 a4.25 4.25 0 1 0 8.5 0 a4.25 4.25 0 1 0 -8.5 0z" fill="rgba(0, 0, 0, 0.07)"></path>
            <path d="M178.5 501.5L93.5 416.5L93.5 382.5L8.5 297.5L8.5 263.5" stroke-width="2.83" stroke="rgba(0, 0, 0, 0.07)"></path>
            <path d="M174.25 501.5 a4.25 4.25 0 1 0 8.5 0 a4.25 4.25 0 1 0 -8.5 0zM4.25 263.5 a4.25 4.25 0 1 0 8.5 0 a4.25 4.25 0 1 0 -8.5 0z" fill="rgba(0, 0, 0, 0.07)"></path>
            <path d="M314.5 161.5L433.5 161.5L450.5 144.5" stroke-width="2.83" stroke="rgba(0, 0, 0, 0.07)"></path>
            <path d="M310.25 161.5 a4.25 4.25 0 1 0 8.5 0 a4.25 4.25 0 1 0 -8.5 0zM446.25 144.5 a4.25 4.25 0 1 0 8.5 0 a4.25 4.25 0 1 0 -8.5 0z" fill="rgba(0, 0, 0, 0.07)"></path>
            <path d="M212.5 8.5L280.5 76.5L399.5 76.5" stroke-width="2.83" stroke="rgba(0, 0, 0, 0.07)"></path>
            <path d="M208.25 8.5 a4.25 4.25 0 1 0 8.5 0 a4.25 4.25 0 1 0 -8.5 0zM395.25 76.5 a4.25 4.25 0 1 0 8.5 0 a4.25 4.25 0 1 0 -8.5 0z" fill="rgba(0, 0, 0, 0.07)"></path>
            <path d="M42.5 484.5L42.5 348.5L8.5 314.5" stroke-width="2.83" stroke="rgba(0, 0, 0, 0.07)"></path>
            <path d="M38.25 484.5 a4.25 4.25 0 1 0 8.5 0 a4.25 4.25 0 1 0 -8.5 0zM4.25 314.5 a4.25 4.25 0 1 0 8.5 0 a4.25 4.25 0 1 0 -8.5 0z" fill="rgba(0, 0, 0, 0.07)"></path>
            <path d="M178.5 8.5L195.5 8.5L331.5 144.5L433.5 144.5" stroke-width="2.83" stroke="rgba(0, 0, 0, 0.07)"></path>
            <path d="M174.25 8.5 a4.25 4.25 0 1 0 8.5 0 a4.25 4.25 0 1 0 -8.5 0zM429.25 144.5 a4.25 4.25 0 1 0 8.5 0 a4.25 4.25 0 1 0 -8.5 0z" fill="rgba(0, 0, 0, 0.07)"></path>
            <path d="M280.5 450.5L229.5 450.5L195.5 484.5L178.5 484.5L161.5 467.5L161.5 399.5" stroke-width="2.83" stroke="rgba(0, 0, 0, 0.07)"></path>
            <path d="M276.25 450.5 a4.25 4.25 0 1 0 8.5 0 a4.25 4.25 0 1 0 -8.5 0zM157.25 399.5 a4.25 4.25 0 1 0 8.5 0 a4.25 4.25 0 1 0 -8.5 0z" fill="rgba(0, 0, 0, 0.07)"></path>
            <path d="M501.5 382.5L501.5 348.5" stroke-width="2.83" stroke="rgba(0, 0, 0, 0.07)"></path>
            <path d="M497.25 382.5 a4.25 4.25 0 1 0 8.5 0 a4.25 4.25 0 1 0 -8.5 0zM497.25 348.5 a4.25 4.25 0 1 0 8.5 0 a4.25 4.25 0 1 0 -8.5 0z" fill="rgba(0, 0, 0, 0.07)"></path>
            <path d="M450.5 195.5L450.5 161.5" stroke-width="2.83" stroke="rgba(0, 0, 0, 0.07)"></path>
            <path d="M446.25 195.5 a4.25 4.25 0 1 0 8.5 0 a4.25 4.25 0 1 0 -8.5 0zM446.25 161.5 a4.25 4.25 0 1 0 8.5 0 a4.25 4.25 0 1 0 -8.5 0z" fill="rgba(0, 0, 0, 0.07)"></path>
            <path d="M229.5 229.5L144.5 314.5L144.5 365.5" stroke-width="2.83" stroke="rgba(0, 0, 0, 0.07)"></path>
            <path d="M225.25 229.5 a4.25 4.25 0 1 0 8.5 0 a4.25 4.25 0 1 0 -8.5 0zM140.25 365.5 a4.25 4.25 0 1 0 8.5 0 a4.25 4.25 0 1 0 -8.5 0z" fill="rgba(0, 0, 0, 0.07)"></path>
            <path d="M59.5 212.5L93.5 212.5L161.5 280.5" stroke-width="2.83" stroke="rgba(0, 0, 0, 0.07)"></path>
            <path d="M55.25 212.5 a4.25 4.25 0 1 0 8.5 0 a4.25 4.25 0 1 0 -8.5 0zM157.25 280.5 a4.25 4.25 0 1 0 8.5 0 a4.25 4.25 0 1 0 -8.5 0z" fill="rgba(0, 0, 0, 0.07)"></path>
            <path d="M263.5 8.5L263.5 42.5L280.5 59.5L399.5 59.5" stroke-width="2.83" stroke="rgba(0, 0, 0, 0.07)"></path>
            <path d="M259.25 8.5 a4.25 4.25 0 1 0 8.5 0 a4.25 4.25 0 1 0 -8.5 0zM395.25 59.5 a4.25 4.25 0 1 0 8.5 0 a4.25 4.25 0 1 0 -8.5 0z" fill="rgba(0, 0, 0, 0.07)"></path>
            <path d="M212.5 399.5L246.5 399.5L280.5 433.5" stroke-width="2.83" stroke="rgba(0, 0, 0, 0.07)"></path>
            <path d="M208.25 399.5 a4.25 4.25 0 1 0 8.5 0 a4.25 4.25 0 1 0 -8.5 0zM276.25 433.5 a4.25 4.25 0 1 0 8.5 0 a4.25 4.25 0 1 0 -8.5 0z" fill="rgba(0, 0, 0, 0.07)"></path>
            <path d="M8.5 25.5L8.5 127.5L25.5 144.5L42.5 144.5L161.5 25.5L161.5 8.5" stroke-width="2.83" stroke="rgba(0, 0, 0, 0.07)"></path>
            <path d="M4.25 25.5 a4.25 4.25 0 1 0 8.5 0 a4.25 4.25 0 1 0 -8.5 0zM157.25 8.5 a4.25 4.25 0 1 0 8.5 0 a4.25 4.25 0 1 0 -8.5 0z" fill="rgba(0, 0, 0, 0.07)"></path>
            <path d="M399.5 212.5L416.5 229.5L433.5 229.5L450.5 212.5" stroke-width="2.83" stroke="rgba(0, 0, 0, 0.07)"></path>
            <path d="M395.25 212.5 a4.25 4.25 0 1 0 8.5 0 a4.25 4.25 0 1 0 -8.5 0zM446.25 212.5 a4.25 4.25 0 1 0 8.5 0 a4.25 4.25 0 1 0 -8.5 0z" fill="rgba(0, 0, 0, 0.07)"></path>
            <path d="M42.5 42.5L42.5 8.5" stroke-width="2.83" stroke="rgba(0, 0, 0, 0.07)"></path>
            <path d="M38.25 42.5 a4.25 4.25 0 1 0 8.5 0 a4.25 4.25 0 1 0 -8.5 0zM38.25 8.5 a4.25 4.25 0 1 0 8.5 0 a4.25 4.25 0 1 0 -8.5 0z" fill="rgba(0, 0, 0, 0.07)"></path>
            <path d="M76.5 161.5L76.5 195.5" stroke-width="2.83" stroke="rgba(0, 0, 0, 0.07)"></path>
            <path d="M72.25 161.5 a4.25 4.25 0 1 0 8.5 0 a4.25 4.25 0 1 0 -8.5 0zM72.25 195.5 a4.25 4.25 0 1 0 8.5 0 a4.25 4.25 0 1 0 -8.5 0z" fill="rgba(0, 0, 0, 0.07)"></path>
            <path d="M110.5 399.5L110.5 416.5L144.5 450.5" stroke-width="2.83" stroke="rgba(0, 0, 0, 0.07)"></path>
            <path d="M106.25 399.5 a4.25 4.25 0 1 0 8.5 0 a4.25 4.25 0 1 0 -8.5 0zM140.25 450.5 a4.25 4.25 0 1 0 8.5 0 a4.25 4.25 0 1 0 -8.5 0z" fill="rgba(0, 0, 0, 0.07)"></path>
            <path d="M416.5 8.5L348.5 8.5L314.5 42.5L280.5 42.5" stroke-width="2.83" stroke="rgba(0, 0, 0, 0.07)"></path>
            <path d="M412.25 8.5 a4.25 4.25 0 1 0 8.5 0 a4.25 4.25 0 1 0 -8.5 0zM276.25 42.5 a4.25 4.25 0 1 0 8.5 0 a4.25 4.25 0 1 0 -8.5 0z" fill="rgba(0, 0, 0, 0.07)"></path>
            <path d="M229.5 348.5L280.5 399.5L297.5 399.5L314.5 416.5L331.5 416.5L365.5 382.5L365.5 348.5L331.5 314.5L297.5 314.5L263.5 348.5L263.5 365.5L280.5 382.5L297.5 382.5" stroke-width="2.83" stroke="rgba(0, 0, 0, 0.07)"></path>
            <path d="M225.25 348.5 a4.25 4.25 0 1 0 8.5 0 a4.25 4.25 0 1 0 -8.5 0zM293.25 382.5 a4.25 4.25 0 1 0 8.5 0 a4.25 4.25 0 1 0 -8.5 0z" fill="rgba(0, 0, 0, 0.07)"></path>
            <path d="M450.5 467.5L501.5 467.5" stroke-width="2.83" stroke="rgba(0, 0, 0, 0.07)"></path>
            <path d="M446.25 467.5 a4.25 4.25 0 1 0 8.5 0 a4.25 4.25 0 1 0 -8.5 0zM497.25 467.5 a4.25 4.25 0 1 0 8.5 0 a4.25 4.25 0 1 0 -8.5 0z" fill="rgba(0, 0, 0, 0.07)"></path>
            <path d="M280.5 297.5L297.5 297.5L314.5 280.5" stroke-width="2.83" stroke="rgba(0, 0, 0, 0.07)"></path>
            <path d="M276.25 297.5 a4.25 4.25 0 1 0 8.5 0 a4.25 4.25 0 1 0 -8.5 0zM310.25 280.5 a4.25 4.25 0 1 0 8.5 0 a4.25 4.25 0 1 0 -8.5 0z" fill="rgba(0, 0, 0, 0.07)"></path>
            <path d="M110.5 195.5L161.5 144.5" stroke-width="2.83" stroke="rgba(0, 0, 0, 0.07)"></path>
            <path d="M106.25 195.5 a4.25 4.25 0 1 0 8.5 0 a4.25 4.25 0 1 0 -8.5 0zM157.25 144.5 a4.25 4.25 0 1 0 8.5 0 a4.25 4.25 0 1 0 -8.5 0z" fill="rgba(0, 0, 0, 0.07)"></path>
            <path d="M484.5 42.5L467.5 25.5L433.5 25.5" stroke-width="2.83" stroke="rgba(0, 0, 0, 0.07)"></path>
            <path d="M480.25 42.5 a4.25 4.25 0 1 0 8.5 0 a4.25 4.25 0 1 0 -8.5 0zM429.25 25.5 a4.25 4.25 0 1 0 8.5 0 a4.25 4.25 0 1 0 -8.5 0z" fill="rgba(0, 0, 0, 0.07)"></path>
            <path d="M501.5 314.5L450.5 263.5L433.5 263.5L399.5 297.5L382.5 297.5L195.5 110.5L195.5 93.5" stroke-width="2.83" stroke="rgba(0, 0, 0, 0.07)"></path>
            <path d="M497.25 314.5 a4.25 4.25 0 1 0 8.5 0 a4.25 4.25 0 1 0 -8.5 0zM191.25 93.5 a4.25 4.25 0 1 0 8.5 0 a4.25 4.25 0 1 0 -8.5 0z" fill="rgba(0, 0, 0, 0.07)"></path>
            <path d="M501.5 263.5L501.5 8.5" stroke-width="2.83" stroke="rgba(0, 0, 0, 0.07)"></path>
            <path d="M497.25 263.5 a4.25 4.25 0 1 0 8.5 0 a4.25 4.25 0 1 0 -8.5 0zM497.25 8.5 a4.25 4.25 0 1 0 8.5 0 a4.25 4.25 0 1 0 -8.5 0z" fill="rgba(0, 0, 0, 0.07)"></path>
            <path d="M484.5 127.5L484.5 263.5" stroke-width="2.83" stroke="rgba(0, 0, 0, 0.07)"></path>
            <path d="M480.25 127.5 a4.25 4.25 0 1 0 8.5 0 a4.25 4.25 0 1 0 -8.5 0zM480.25 263.5 a4.25 4.25 0 1 0 8.5 0 a4.25 4.25 0 1 0 -8.5 0z" fill="rgba(0, 0, 0, 0.07)"></path>
            <path d="M76.5 246.5L110.5 246.5L144.5 280.5L144.5 297.5L110.5 331.5L93.5 331.5L76.5 314.5" stroke-width="2.83" stroke="rgba(0, 0, 0, 0.07)"></path>
            <path d="M72.25 246.5 a4.25 4.25 0 1 0 8.5 0 a4.25 4.25 0 1 0 -8.5 0zM72.25 314.5 a4.25 4.25 0 1 0 8.5 0 a4.25 4.25 0 1 0 -8.5 0z" fill="rgba(0, 0, 0, 0.07)"></path>
            <path d="M25.5 93.5L42.5 110.5L59.5 110.5L127.5 42.5L127.5 8.5" stroke-width="2.83" stroke="rgba(0, 0, 0, 0.07)"></path>
            <path d="M21.25 93.5 a4.25 4.25 0 1 0 8.5 0 a4.25 4.25 0 1 0 -8.5 0zM123.25 8.5 a4.25 4.25 0 1 0 8.5 0 a4.25 4.25 0 1 0 -8.5 0z" fill="rgba(0, 0, 0, 0.07)"></path>
            <path d="M280.5 501.5L314.5 467.5" stroke-width="2.83" stroke="rgba(0, 0, 0, 0.07)"></path>
            <path d="M276.25 501.5 a4.25 4.25 0 1 0 8.5 0 a4.25 4.25 0 1 0 -8.5 0zM310.25 467.5 a4.25 4.25 0 1 0 8.5 0 a4.25 4.25 0 1 0 -8.5 0z" fill="rgba(0, 0, 0, 0.07)"></path>
            <path d="M280.5 467.5L229.5 467.5L195.5 501.5" stroke-width="2.83" stroke="rgba(0, 0, 0, 0.07)"></path>
            <path d="M276.25 467.5 a4.25 4.25 0 1 0 8.5 0 a4.25 4.25 0 1 0 -8.5 0zM191.25 501.5 a4.25 4.25 0 1 0 8.5 0 a4.25 4.25 0 1 0 -8.5 0z" fill="rgba(0, 0, 0, 0.07)"></path>
            <path d="M467.5 382.5L484.5 382.5L501.5 399.5L501.5 450.5" stroke-width="2.83" stroke="rgba(0, 0, 0, 0.07)"></path>
            <path d="M463.25 382.5 a4.25 4.25 0 1 0 8.5 0 a4.25 4.25 0 1 0 -8.5 0zM497.25 450.5 a4.25 4.25 0 1 0 8.5 0 a4.25 4.25 0 1 0 -8.5 0z" fill="rgba(0, 0, 0, 0.07)"></path>
            <path d="M161.5 212.5L229.5 212.5" stroke-width="2.83" stroke="rgba(0, 0, 0, 0.07)"></path>
            <path d="M157.25 212.5 a4.25 4.25 0 1 0 8.5 0 a4.25 4.25 0 1 0 -8.5 0zM225.25 212.5 a4.25 4.25 0 1 0 8.5 0 a4.25 4.25 0 1 0 -8.5 0z" fill="rgba(0, 0, 0, 0.07)"></path>
            <path d="M382.5 399.5L433.5 399.5L484.5 450.5" stroke-width="2.83" stroke="rgba(0, 0, 0, 0.07)"></path>
            <path d="M378.25 399.5 a4.25 4.25 0 1 0 8.5 0 a4.25 4.25 0 1 0 -8.5 0zM480.25 450.5 a4.25 4.25 0 1 0 8.5 0 a4.25 4.25 0 1 0 -8.5 0z" fill="rgba(0, 0, 0, 0.07)"></path>
            <path d="M382.5 416.5L450.5 484.5L501.5 484.5" stroke-width="2.83" stroke="rgba(0, 0, 0, 0.07)"></path>
            <path d="M378.25 416.5 a4.25 4.25 0 1 0 8.5 0 a4.25 4.25 0 1 0 -8.5 0zM497.25 484.5 a4.25 4.25 0 1 0 8.5 0 a4.25 4.25 0 1 0 -8.5 0z" fill="rgba(0, 0, 0, 0.07)"></path>
            <path d="M110.5 280.5L93.5 263.5L42.5 263.5" stroke-width="2.83" stroke="rgba(0, 0, 0, 0.07)"></path>
            <path d="M106.25 280.5 a4.25 4.25 0 1 0 8.5 0 a4.25 4.25 0 1 0 -8.5 0zM38.25 263.5 a4.25 4.25 0 1 0 8.5 0 a4.25 4.25 0 1 0 -8.5 0z" fill="rgba(0, 0, 0, 0.07)"></path>
            <path d="M246.5 263.5L212.5 263.5L161.5 314.5L161.5 365.5" stroke-width="2.83" stroke="rgba(0, 0, 0, 0.07)"></path>
            <path d="M242.25 263.5 a4.25 4.25 0 1 0 8.5 0 a4.25 4.25 0 1 0 -8.5 0zM157.25 365.5 a4.25 4.25 0 1 0 8.5 0 a4.25 4.25 0 1 0 -8.5 0z" fill="rgba(0, 0, 0, 0.07)"></path>
            <path d="M212.5 280.5L246.5 280.5" stroke-width="2.83" stroke="rgba(0, 0, 0, 0.07)"></path>
            <path d="M208.25 280.5 a4.25 4.25 0 1 0 8.5 0 a4.25 4.25 0 1 0 -8.5 0zM242.25 280.5 a4.25 4.25 0 1 0 8.5 0 a4.25 4.25 0 1 0 -8.5 0z" fill="rgba(0, 0, 0, 0.07)"></path>
            <path d="M399.5 127.5L433.5 127.5" stroke-width="2.83" stroke="rgba(0, 0, 0, 0.07)"></path>
            <path d="M395.25 127.5 a4.25 4.25 0 1 0 8.5 0 a4.25 4.25 0 1 0 -8.5 0zM429.25 127.5 a4.25 4.25 0 1 0 8.5 0 a4.25 4.25 0 1 0 -8.5 0z" fill="rgba(0, 0, 0, 0.07)"></path>
            <path d="M144.5 127.5L110.5 127.5" stroke-width="2.83" stroke="rgba(0, 0, 0, 0.07)"></path>
            <path d="M140.25 127.5 a4.25 4.25 0 1 0 8.5 0 a4.25 4.25 0 1 0 -8.5 0zM106.25 127.5 a4.25 4.25 0 1 0 8.5 0 a4.25 4.25 0 1 0 -8.5 0z" fill="rgba(0, 0, 0, 0.07)"></path>
            <path d="M110.5 8.5L59.5 8.5" stroke-width="2.83" stroke="rgba(0, 0, 0, 0.07)"></path>
            <path d="M106.25 8.5 a4.25 4.25 0 1 0 8.5 0 a4.25 4.25 0 1 0 -8.5 0zM55.25 8.5 a4.25 4.25 0 1 0 8.5 0 a4.25 4.25 0 1 0 -8.5 0z" fill="rgba(0, 0, 0, 0.07)"></path>
            <path d="M161.5 178.5L144.5 178.5L110.5 212.5" stroke-width="2.83" stroke="rgba(0, 0, 0, 0.07)"></path>
            <path d="M157.25 178.5 a4.25 4.25 0 1 0 8.5 0 a4.25 4.25 0 1 0 -8.5 0zM106.25 212.5 a4.25 4.25 0 1 0 8.5 0 a4.25 4.25 0 1 0 -8.5 0z" fill="rgba(0, 0, 0, 0.07)"></path>
            <path d="M365.5 178.5L433.5 178.5" stroke-width="2.83" stroke="rgba(0, 0, 0, 0.07)"></path>
            <path d="M361.25 178.5 a4.25 4.25 0 1 0 8.5 0 a4.25 4.25 0 1 0 -8.5 0zM429.25 178.5 a4.25 4.25 0 1 0 8.5 0 a4.25 4.25 0 1 0 -8.5 0z" fill="rgba(0, 0, 0, 0.07)"></path>
            <path d="M467.5 59.5L433.5 59.5" stroke-width="2.83" stroke="rgba(0, 0, 0, 0.07)"></path>
            <path d="M463.25 59.5 a4.25 4.25 0 1 0 8.5 0 a4.25 4.25 0 1 0 -8.5 0zM429.25 59.5 a4.25 4.25 0 1 0 8.5 0 a4.25 4.25 0 1 0 -8.5 0z" fill="rgba(0, 0, 0, 0.07)"></path>
            <path d="M195.5 314.5L212.5 297.5L246.5 297.5" stroke-width="2.83" stroke="rgba(0, 0, 0, 0.07)"></path>
            <path d="M191.25 314.5 a4.25 4.25 0 1 0 8.5 0 a4.25 4.25 0 1 0 -8.5 0zM242.25 297.5 a4.25 4.25 0 1 0 8.5 0 a4.25 4.25 0 1 0 -8.5 0z" fill="rgba(0, 0, 0, 0.07)"></path>
            <path d="M331.5 178.5L331.5 229.5L382.5 280.5L399.5 280.5L416.5 263.5" stroke-width="2.83" stroke="rgba(0, 0, 0, 0.07)"></path>
            <path d="M327.25 178.5 a4.25 4.25 0 1 0 8.5 0 a4.25 4.25 0 1 0 -8.5 0zM412.25 263.5 a4.25 4.25 0 1 0 8.5 0 a4.25 4.25 0 1 0 -8.5 0z" fill="rgba(0, 0, 0, 0.07)"></path>
            <path d="M127.5 501.5L8.5 501.5" stroke-width="2.83" stroke="rgba(0, 0, 0, 0.07)"></path>
            <path d="M123.25 501.5 a4.25 4.25 0 1 0 8.5 0 a4.25 4.25 0 1 0 -8.5 0zM4.25 501.5 a4.25 4.25 0 1 0 8.5 0 a4.25 4.25 0 1 0 -8.5 0z" fill="rgba(0, 0, 0, 0.07)"></path>
            <path d="M195.5 433.5L178.5 450.5L178.5 467.5" stroke-width="2.83" stroke="rgba(0, 0, 0, 0.07)"></path>
            <path d="M191.25 433.5 a4.25 4.25 0 1 0 8.5 0 a4.25 4.25 0 1 0 -8.5 0zM174.25 467.5 a4.25 4.25 0 1 0 8.5 0 a4.25 4.25 0 1 0 -8.5 0z" fill="rgba(0, 0, 0, 0.07)"></path>
            <path d="M144.5 212.5L144.5 246.5L161.5 263.5L178.5 263.5L195.5 246.5L195.5 229.5" stroke-width="2.83" stroke="rgba(0, 0, 0, 0.07)"></path>
            <path d="M140.25 212.5 a4.25 4.25 0 1 0 8.5 0 a4.25 4.25 0 1 0 -8.5 0zM191.25 229.5 a4.25 4.25 0 1 0 8.5 0 a4.25 4.25 0 1 0 -8.5 0z" fill="rgba(0, 0, 0, 0.07)"></path>
            <path d="M59.5 246.5L76.5 229.5L93.5 229.5" stroke-width="2.83" stroke="rgba(0, 0, 0, 0.07)"></path>
            <path d="M55.25 246.5 a4.25 4.25 0 1 0 8.5 0 a4.25 4.25 0 1 0 -8.5 0zM89.25 229.5 a4.25 4.25 0 1 0 8.5 0 a4.25 4.25 0 1 0 -8.5 0z" fill="rgba(0, 0, 0, 0.07)"></path>
            <path d="M263.5 144.5L212.5 93.5L212.5 76.5L229.5 59.5" stroke-width="2.83" stroke="rgba(0, 0, 0, 0.07)"></path>
            <path d="M259.25 144.5 a4.25 4.25 0 1 0 8.5 0 a4.25 4.25 0 1 0 -8.5 0zM225.25 59.5 a4.25 4.25 0 1 0 8.5 0 a4.25 4.25 0 1 0 -8.5 0z" fill="rgba(0, 0, 0, 0.07)"></path>
            <path d="M399.5 450.5L365.5 416.5" stroke-width="2.83" stroke="rgba(0, 0, 0, 0.07)"></path>
            <path d="M395.25 450.5 a4.25 4.25 0 1 0 8.5 0 a4.25 4.25 0 1 0 -8.5 0zM361.25 416.5 a4.25 4.25 0 1 0 8.5 0 a4.25 4.25 0 1 0 -8.5 0z" fill="rgba(0, 0, 0, 0.07)"></path>
            <path d="M8.5 365.5L25.5 382.5L25.5 416.5L8.5 433.5L8.5 484.5" stroke-width="2.83" stroke="rgba(0, 0, 0, 0.07)"></path>
            <path d="M4.25 365.5 a4.25 4.25 0 1 0 8.5 0 a4.25 4.25 0 1 0 -8.5 0zM4.25 484.5 a4.25 4.25 0 1 0 8.5 0 a4.25 4.25 0 1 0 -8.5 0z" fill="rgba(0, 0, 0, 0.07)"></path>
            <path d="M365.5 110.5L348.5 93.5L297.5 93.5" stroke-width="2.83" stroke="rgba(0, 0, 0, 0.07)"></path>
            <path d="M361.25 110.5 a4.25 4.25 0 1 0 8.5 0 a4.25 4.25 0 1 0 -8.5 0zM293.25 93.5 a4.25 4.25 0 1 0 8.5 0 a4.25 4.25 0 1 0 -8.5 0z" fill="rgba(0, 0, 0, 0.07)"></path>
            <path d="M382.5 110.5L416.5 110.5" stroke-width="2.83" stroke="rgba(0, 0, 0, 0.07)"></path>
            <path d="M378.25 110.5 a4.25 4.25 0 1 0 8.5 0 a4.25 4.25 0 1 0 -8.5 0zM412.25 110.5 a4.25 4.25 0 1 0 8.5 0 a4.25 4.25 0 1 0 -8.5 0z" fill="rgba(0, 0, 0, 0.07)"></path>
            <path d="M76.5 433.5L76.5 399.5" stroke-width="2.83" stroke="rgba(0, 0, 0, 0.07)"></path>
            <path d="M72.25 433.5 a4.25 4.25 0 1 0 8.5 0 a4.25 4.25 0 1 0 -8.5 0zM72.25 399.5 a4.25 4.25 0 1 0 8.5 0 a4.25 4.25 0 1 0 -8.5 0z" fill="rgba(0, 0, 0, 0.07)"></path>
            <path d="M382.5 195.5L348.5 229.5" stroke-width="2.83" stroke="rgba(0, 0, 0, 0.07)"></path>
            <path d="M378.25 195.5 a4.25 4.25 0 1 0 8.5 0 a4.25 4.25 0 1 0 -8.5 0zM344.25 229.5 a4.25 4.25 0 1 0 8.5 0 a4.25 4.25 0 1 0 -8.5 0z" fill="rgba(0, 0, 0, 0.07)"></path>
            <path d="M297.5 178.5L297.5 195.5L314.5 212.5" stroke-width="2.83" stroke="rgba(0, 0, 0, 0.07)"></path>
            <path d="M293.25 178.5 a4.25 4.25 0 1 0 8.5 0 a4.25 4.25 0 1 0 -8.5 0zM310.25 212.5 a4.25 4.25 0 1 0 8.5 0 a4.25 4.25 0 1 0 -8.5 0z" fill="rgba(0, 0, 0, 0.07)"></path>
            <path d="M195.5 399.5L178.5 416.5L178.5 433.5" stroke-width="2.83" stroke="rgba(0, 0, 0, 0.07)"></path>
            <path d="M191.25 399.5 a4.25 4.25 0 1 0 8.5 0 a4.25 4.25 0 1 0 -8.5 0zM174.25 433.5 a4.25 4.25 0 1 0 8.5 0 a4.25 4.25 0 1 0 -8.5 0z" fill="rgba(0, 0, 0, 0.07)"></path>
            <path d="M161.5 76.5L161.5 42.5L178.5 25.5L195.5 25.5" stroke-width="2.83" stroke="rgba(0, 0, 0, 0.07)"></path>
            <path d="M157.25 76.5 a4.25 4.25 0 1 0 8.5 0 a4.25 4.25 0 1 0 -8.5 0zM191.25 25.5 a4.25 4.25 0 1 0 8.5 0 a4.25 4.25 0 1 0 -8.5 0z" fill="rgba(0, 0, 0, 0.07)"></path>
            <path d="M127.5 297.5L110.5 314.5L93.5 314.5" stroke-width="2.83" stroke="rgba(0, 0, 0, 0.07)"></path>
            <path d="M123.25 297.5 a4.25 4.25 0 1 0 8.5 0 a4.25 4.25 0 1 0 -8.5 0zM89.25 314.5 a4.25 4.25 0 1 0 8.5 0 a4.25 4.25 0 1 0 -8.5 0z" fill="rgba(0, 0, 0, 0.07)"></path>
            <path d="M365.5 450.5L365.5 467.5L382.5 484.5L433.5 484.5" stroke-width="2.83" stroke="rgba(0, 0, 0, 0.07)"></path>
            <path d="M361.25 450.5 a4.25 4.25 0 1 0 8.5 0 a4.25 4.25 0 1 0 -8.5 0zM429.25 484.5 a4.25 4.25 0 1 0 8.5 0 a4.25 4.25 0 1 0 -8.5 0z" fill="rgba(0, 0, 0, 0.07)"></path>
            <path d="M382.5 42.5L331.5 42.5" stroke-width="2.83" stroke="rgba(0, 0, 0, 0.07)"></path>
            <path d="M378.25 42.5 a4.25 4.25 0 1 0 8.5 0 a4.25 4.25 0 1 0 -8.5 0zM327.25 42.5 a4.25 4.25 0 1 0 8.5 0 a4.25 4.25 0 1 0 -8.5 0z" fill="rgba(0, 0, 0, 0.07)"></path>
            <path d="M93.5 467.5L93.5 433.5" stroke-width="2.83" stroke="rgba(0, 0, 0, 0.07)"></path>
            <path d="M89.25 467.5 a4.25 4.25 0 1 0 8.5 0 a4.25 4.25 0 1 0 -8.5 0zM89.25 433.5 a4.25 4.25 0 1 0 8.5 0 a4.25 4.25 0 1 0 -8.5 0z" fill="rgba(0, 0, 0, 0.07)"></path>
            <path d="M331.5 331.5L297.5 331.5L280.5 348.5L280.5 365.5" stroke-width="2.83" stroke="rgba(0, 0, 0, 0.07)"></path>
            <path d="M327.25 331.5 a4.25 4.25 0 1 0 8.5 0 a4.25 4.25 0 1 0 -8.5 0zM276.25 365.5 a4.25 4.25 0 1 0 8.5 0 a4.25 4.25 0 1 0 -8.5 0z" fill="rgba(0, 0, 0, 0.07)"></path>
            <path d="M297.5 144.5L280.5 144.5L263.5 161.5" stroke-width="2.83" stroke="rgba(0, 0, 0, 0.07)"></path>
            <path d="M293.25 144.5 a4.25 4.25 0 1 0 8.5 0 a4.25 4.25 0 1 0 -8.5 0zM259.25 161.5 a4.25 4.25 0 1 0 8.5 0 a4.25 4.25 0 1 0 -8.5 0z" fill="rgba(0, 0, 0, 0.07)"></path>
            <path d="M59.5 195.5L59.5 161.5" stroke-width="2.83" stroke="rgba(0, 0, 0, 0.07)"></path>
            <path d="M55.25 195.5 a4.25 4.25 0 1 0 8.5 0 a4.25 4.25 0 1 0 -8.5 0zM55.25 161.5 a4.25 4.25 0 1 0 8.5 0 a4.25 4.25 0 1 0 -8.5 0z" fill="rgba(0, 0, 0, 0.07)"></path>
            <path d="M42.5 195.5L42.5 212.5L25.5 229.5" stroke-width="2.83" stroke="rgba(0, 0, 0, 0.07)"></path>
            <path d="M38.25 195.5 a4.25 4.25 0 1 0 8.5 0 a4.25 4.25 0 1 0 -8.5 0zM21.25 229.5 a4.25 4.25 0 1 0 8.5 0 a4.25 4.25 0 1 0 -8.5 0z" fill="rgba(0, 0, 0, 0.07)"></path>
            <path d="M229.5 331.5L195.5 365.5L178.5 365.5" stroke-width="2.83" stroke="rgba(0, 0, 0, 0.07)"></path>
            <path d="M225.25 331.5 a4.25 4.25 0 1 0 8.5 0 a4.25 4.25 0 1 0 -8.5 0zM174.25 365.5 a4.25 4.25 0 1 0 8.5 0 a4.25 4.25 0 1 0 -8.5 0z" fill="rgba(0, 0, 0, 0.07)"></path>
            <path d="M450.5 433.5L433.5 416.5L399.5 416.5" stroke-width="2.83" stroke="rgba(0, 0, 0, 0.07)"></path>
            <path d="M446.25 433.5 a4.25 4.25 0 1 0 8.5 0 a4.25 4.25 0 1 0 -8.5 0zM395.25 416.5 a4.25 4.25 0 1 0 8.5 0 a4.25 4.25 0 1 0 -8.5 0z" fill="rgba(0, 0, 0, 0.07)"></path>
            <path d="M144.5 501.5L110.5 467.5L110.5 450.5" stroke-width="2.83" stroke="rgba(0, 0, 0, 0.07)"></path>
            <path d="M140.25 501.5 a4.25 4.25 0 1 0 8.5 0 a4.25 4.25 0 1 0 -8.5 0zM106.25 450.5 a4.25 4.25 0 1 0 8.5 0 a4.25 4.25 0 1 0 -8.5 0z" fill="rgba(0, 0, 0, 0.07)"></path>
            <path d="M59.5 93.5L42.5 93.5L25.5 76.5L25.5 8.5" stroke-width="2.83" stroke="rgba(0, 0, 0, 0.07)"></path>
            <path d="M55.25 93.5 a4.25 4.25 0 1 0 8.5 0 a4.25 4.25 0 1 0 -8.5 0zM21.25 8.5 a4.25 4.25 0 1 0 8.5 0 a4.25 4.25 0 1 0 -8.5 0z" fill="rgba(0, 0, 0, 0.07)"></path>
            <path d="M467.5 76.5L484.5 93.5L484.5 110.5L467.5 127.5" stroke-width="2.83" stroke="rgba(0, 0, 0, 0.07)"></path>
            <path d="M463.25 76.5 a4.25 4.25 0 1 0 8.5 0 a4.25 4.25 0 1 0 -8.5 0zM463.25 127.5 a4.25 4.25 0 1 0 8.5 0 a4.25 4.25 0 1 0 -8.5 0z" fill="rgba(0, 0, 0, 0.07)"></path>
            <path d="M348.5 110.5L365.5 127.5L382.5 127.5" stroke-width="2.83" stroke="rgba(0, 0, 0, 0.07)"></path>
            <path d="M344.25 110.5 a4.25 4.25 0 1 0 8.5 0 a4.25 4.25 0 1 0 -8.5 0zM378.25 127.5 a4.25 4.25 0 1 0 8.5 0 a4.25 4.25 0 1 0 -8.5 0z" fill="rgba(0, 0, 0, 0.07)"></path>
            <path d="M467.5 348.5L416.5 348.5" stroke-width="2.83" stroke="rgba(0, 0, 0, 0.07)"></path>
            <path d="M463.25 348.5 a4.25 4.25 0 1 0 8.5 0 a4.25 4.25 0 1 0 -8.5 0zM412.25 348.5 a4.25 4.25 0 1 0 8.5 0 a4.25 4.25 0 1 0 -8.5 0z" fill="rgba(0, 0, 0, 0.07)"></path>
            <path d="M297.5 348.5L348.5 348.5" stroke-width="2.83" stroke="rgba(0, 0, 0, 0.07)"></path>
            <path d="M293.25 348.5 a4.25 4.25 0 1 0 8.5 0 a4.25 4.25 0 1 0 -8.5 0zM344.25 348.5 a4.25 4.25 0 1 0 8.5 0 a4.25 4.25 0 1 0 -8.5 0z" fill="rgba(0, 0, 0, 0.07)"></path>
            <path d="M382.5 212.5L382.5 229.5L365.5 246.5" stroke-width="2.83" stroke="rgba(0, 0, 0, 0.07)"></path>
            <path d="M378.25 212.5 a4.25 4.25 0 1 0 8.5 0 a4.25 4.25 0 1 0 -8.5 0zM361.25 246.5 a4.25 4.25 0 1 0 8.5 0 a4.25 4.25 0 1 0 -8.5 0z" fill="rgba(0, 0, 0, 0.07)"></path>
            <path d="M144.5 399.5L144.5 433.5" stroke-width="2.83" stroke="rgba(0, 0, 0, 0.07)"></path>
            <path d="M140.25 399.5 a4.25 4.25 0 1 0 8.5 0 a4.25 4.25 0 1 0 -8.5 0zM140.25 433.5 a4.25 4.25 0 1 0 8.5 0 a4.25 4.25 0 1 0 -8.5 0z" fill="rgba(0, 0, 0, 0.07)"></path>
            <path d="M59.5 484.5L110.5 484.5" stroke-width="2.83" stroke="rgba(0, 0, 0, 0.07)"></path>
            <path d="M55.25 484.5 a4.25 4.25 0 1 0 8.5 0 a4.25 4.25 0 1 0 -8.5 0zM106.25 484.5 a4.25 4.25 0 1 0 8.5 0 a4.25 4.25 0 1 0 -8.5 0z" fill="rgba(0, 0, 0, 0.07)"></path>
            <path d="M433.5 212.5L416.5 212.5L399.5 195.5" stroke-width="2.83" stroke="rgba(0, 0, 0, 0.07)"></path>
            <path d="M429.25 212.5 a4.25 4.25 0 1 0 8.5 0 a4.25 4.25 0 1 0 -8.5 0zM395.25 195.5 a4.25 4.25 0 1 0 8.5 0 a4.25 4.25 0 1 0 -8.5 0z" fill="rgba(0, 0, 0, 0.07)"></path>
            <path d="M42.5 76.5L76.5 76.5L93.5 59.5" stroke-width="2.83" stroke="rgba(0, 0, 0, 0.07)"></path>
            <path d="M38.25 76.5 a4.25 4.25 0 1 0 8.5 0 a4.25 4.25 0 1 0 -8.5 0zM89.25 59.5 a4.25 4.25 0 1 0 8.5 0 a4.25 4.25 0 1 0 -8.5 0z" fill="rgba(0, 0, 0, 0.07)"></path>
            <path d="M348.5 127.5L331.5 127.5L314.5 110.5" stroke-width="2.83" stroke="rgba(0, 0, 0, 0.07)"></path>
            <path d="M344.25 127.5 a4.25 4.25 0 1 0 8.5 0 a4.25 4.25 0 1 0 -8.5 0zM310.25 110.5 a4.25 4.25 0 1 0 8.5 0 a4.25 4.25 0 1 0 -8.5 0z" fill="rgba(0, 0, 0, 0.07)"></path>
            <path d="M297.5 501.5L314.5 484.5L331.5 484.5L348.5 501.5L365.5 501.5" stroke-width="2.83" stroke="rgba(0, 0, 0, 0.07)"></path>
            <path d="M293.25 501.5 a4.25 4.25 0 1 0 8.5 0 a4.25 4.25 0 1 0 -8.5 0zM361.25 501.5 a4.25 4.25 0 1 0 8.5 0 a4.25 4.25 0 1 0 -8.5 0z" fill="rgba(0, 0, 0, 0.07)"></path>
            <path d="M229.5 416.5L246.5 433.5L263.5 433.5" stroke-width="2.83" stroke="rgba(0, 0, 0, 0.07)"></path>
            <path d="M225.25 416.5 a4.25 4.25 0 1 0 8.5 0 a4.25 4.25 0 1 0 -8.5 0zM259.25 433.5 a4.25 4.25 0 1 0 8.5 0 a4.25 4.25 0 1 0 -8.5 0z" fill="rgba(0, 0, 0, 0.07)"></path>
            <path d="M59.5 25.5L76.5 42.5L76.5 59.5" stroke-width="2.83" stroke="rgba(0, 0, 0, 0.07)"></path>
            <path d="M55.25 25.5 a4.25 4.25 0 1 0 8.5 0 a4.25 4.25 0 1 0 -8.5 0zM72.25 59.5 a4.25 4.25 0 1 0 8.5 0 a4.25 4.25 0 1 0 -8.5 0z" fill="rgba(0, 0, 0, 0.07)"></path>
            <path d="M110.5 297.5L93.5 280.5L59.5 280.5" stroke-width="2.83" stroke="rgba(0, 0, 0, 0.07)"></path>
            <path d="M106.25 297.5 a4.25 4.25 0 1 0 8.5 0 a4.25 4.25 0 1 0 -8.5 0zM55.25 280.5 a4.25 4.25 0 1 0 8.5 0 a4.25 4.25 0 1 0 -8.5 0z" fill="rgba(0, 0, 0, 0.07)"></path>
            <path d="M416.5 467.5L382.5 467.5" stroke-width="2.83" stroke="rgba(0, 0, 0, 0.07)"></path>
            <path d="M412.25 467.5 a4.25 4.25 0 1 0 8.5 0 a4.25 4.25 0 1 0 -8.5 0zM378.25 467.5 a4.25 4.25 0 1 0 8.5 0 a4.25 4.25 0 1 0 -8.5 0z" fill="rgba(0, 0, 0, 0.07)"></path>
            <path d="M416.5 297.5L433.5 297.5L450.5 280.5" stroke-width="2.83" stroke="rgba(0, 0, 0, 0.07)"></path>
            <path d="M412.25 297.5 a4.25 4.25 0 1 0 8.5 0 a4.25 4.25 0 1 0 -8.5 0zM446.25 280.5 a4.25 4.25 0 1 0 8.5 0 a4.25 4.25 0 1 0 -8.5 0z" fill="rgba(0, 0, 0, 0.07)"></path>
            <path d="M280.5 127.5L246.5 93.5L229.5 93.5" stroke-width="2.83" stroke="rgba(0, 0, 0, 0.07)"></path>
            <path d="M276.25 127.5 a4.25 4.25 0 1 0 8.5 0 a4.25 4.25 0 1 0 -8.5 0zM225.25 93.5 a4.25 4.25 0 1 0 8.5 0 a4.25 4.25 0 1 0 -8.5 0z" fill="rgba(0, 0, 0, 0.07)"></path>
            <path d="M76.5 467.5L76.5 450.5L59.5 433.5L59.5 416.5" stroke-width="2.83" stroke="rgba(0, 0, 0, 0.07)"></path>
            <path d="M72.25 467.5 a4.25 4.25 0 1 0 8.5 0 a4.25 4.25 0 1 0 -8.5 0zM55.25 416.5 a4.25 4.25 0 1 0 8.5 0 a4.25 4.25 0 1 0 -8.5 0z" fill="rgba(0, 0, 0, 0.07)"></path>
            <path d="M212.5 331.5L195.5 331.5L178.5 348.5" stroke-width="2.83" stroke="rgba(0, 0, 0, 0.07)"></path>
            <path d="M208.25 331.5 a4.25 4.25 0 1 0 8.5 0 a4.25 4.25 0 1 0 -8.5 0zM174.25 348.5 a4.25 4.25 0 1 0 8.5 0 a4.25 4.25 0 1 0 -8.5 0z" fill="rgba(0, 0, 0, 0.07)"></path>
        </g>
    </g>
    <defs>
        <mask id="SvgjsMask1181">
            <rect width="500" height="500" fill="#ffffff"></rect>
        </mask>
        <mask id="SvgjsMask1182">
            <rect width="500" height="500" fill="white"></rect>
            <path d="M465.37 8.5 a2.13 2.13 0 1 0 4.26 0 a2.13 2.13 0 1 0 -4.26 0zM380.37 246.5 a2.13 2.13 0 1 0 4.26 0 a2.13 2.13 0 1 0 -4.26 0z" fill="black"></path>
            <path d="M482.37 433.5 a2.13 2.13 0 1 0 4.26 0 a2.13 2.13 0 1 0 -4.26 0zM159.37 110.5 a2.13 2.13 0 1 0 4.26 0 a2.13 2.13 0 1 0 -4.26 0z" fill="black"></path>
            <path d="M499.37 331.5 a2.13 2.13 0 1 0 4.26 0 a2.13 2.13 0 1 0 -4.26 0zM176.37 110.5 a2.13 2.13 0 1 0 4.26 0 a2.13 2.13 0 1 0 -4.26 0z" fill="black"></path>
            <path d="M346.37 484.5 a2.13 2.13 0 1 0 4.26 0 a2.13 2.13 0 1 0 -4.26 0zM23.37 297.5 a2.13 2.13 0 1 0 4.26 0 a2.13 2.13 0 1 0 -4.26 0z" fill="black"></path>
            <path d="M210.37 59.5 a2.13 2.13 0 1 0 4.26 0 a2.13 2.13 0 1 0 -4.26 0zM74.37 297.5 a2.13 2.13 0 1 0 4.26 0 a2.13 2.13 0 1 0 -4.26 0z" fill="black"></path>
            <path d="M91.37 195.5 a2.13 2.13 0 1 0 4.26 0 a2.13 2.13 0 1 0 -4.26 0zM261.37 314.5 a2.13 2.13 0 1 0 4.26 0 a2.13 2.13 0 1 0 -4.26 0z" fill="black"></path>
            <path d="M125.37 331.5 a2.13 2.13 0 1 0 4.26 0 a2.13 2.13 0 1 0 -4.26 0zM57.37 314.5 a2.13 2.13 0 1 0 4.26 0 a2.13 2.13 0 1 0 -4.26 0z" fill="black"></path>
            <path d="M312.37 297.5 a2.13 2.13 0 1 0 4.26 0 a2.13 2.13 0 1 0 -4.26 0zM482.37 501.5 a2.13 2.13 0 1 0 4.26 0 a2.13 2.13 0 1 0 -4.26 0z" fill="black"></path>
            <path d="M176.37 501.5 a2.13 2.13 0 1 0 4.26 0 a2.13 2.13 0 1 0 -4.26 0zM6.37 263.5 a2.13 2.13 0 1 0 4.26 0 a2.13 2.13 0 1 0 -4.26 0z" fill="black"></path>
            <path d="M312.37 161.5 a2.13 2.13 0 1 0 4.26 0 a2.13 2.13 0 1 0 -4.26 0zM448.37 144.5 a2.13 2.13 0 1 0 4.26 0 a2.13 2.13 0 1 0 -4.26 0z" fill="black"></path>
            <path d="M210.37 8.5 a2.13 2.13 0 1 0 4.26 0 a2.13 2.13 0 1 0 -4.26 0zM397.37 76.5 a2.13 2.13 0 1 0 4.26 0 a2.13 2.13 0 1 0 -4.26 0z" fill="black"></path>
            <path d="M40.37 484.5 a2.13 2.13 0 1 0 4.26 0 a2.13 2.13 0 1 0 -4.26 0zM6.37 314.5 a2.13 2.13 0 1 0 4.26 0 a2.13 2.13 0 1 0 -4.26 0z" fill="black"></path>
            <path d="M176.37 8.5 a2.13 2.13 0 1 0 4.26 0 a2.13 2.13 0 1 0 -4.26 0zM431.37 144.5 a2.13 2.13 0 1 0 4.26 0 a2.13 2.13 0 1 0 -4.26 0z" fill="black"></path>
            <path d="M278.37 450.5 a2.13 2.13 0 1 0 4.26 0 a2.13 2.13 0 1 0 -4.26 0zM159.37 399.5 a2.13 2.13 0 1 0 4.26 0 a2.13 2.13 0 1 0 -4.26 0z" fill="black"></path>
            <path d="M499.37 382.5 a2.13 2.13 0 1 0 4.26 0 a2.13 2.13 0 1 0 -4.26 0zM499.37 348.5 a2.13 2.13 0 1 0 4.26 0 a2.13 2.13 0 1 0 -4.26 0z" fill="black"></path>
            <path d="M448.37 195.5 a2.13 2.13 0 1 0 4.26 0 a2.13 2.13 0 1 0 -4.26 0zM448.37 161.5 a2.13 2.13 0 1 0 4.26 0 a2.13 2.13 0 1 0 -4.26 0z" fill="black"></path>
            <path d="M227.37 229.5 a2.13 2.13 0 1 0 4.26 0 a2.13 2.13 0 1 0 -4.26 0zM142.37 365.5 a2.13 2.13 0 1 0 4.26 0 a2.13 2.13 0 1 0 -4.26 0z" fill="black"></path>
            <path d="M57.37 212.5 a2.13 2.13 0 1 0 4.26 0 a2.13 2.13 0 1 0 -4.26 0zM159.37 280.5 a2.13 2.13 0 1 0 4.26 0 a2.13 2.13 0 1 0 -4.26 0z" fill="black"></path>
            <path d="M261.37 8.5 a2.13 2.13 0 1 0 4.26 0 a2.13 2.13 0 1 0 -4.26 0zM397.37 59.5 a2.13 2.13 0 1 0 4.26 0 a2.13 2.13 0 1 0 -4.26 0z" fill="black"></path>
            <path d="M210.37 399.5 a2.13 2.13 0 1 0 4.26 0 a2.13 2.13 0 1 0 -4.26 0zM278.37 433.5 a2.13 2.13 0 1 0 4.26 0 a2.13 2.13 0 1 0 -4.26 0z" fill="black"></path>
            <path d="M6.37 25.5 a2.13 2.13 0 1 0 4.26 0 a2.13 2.13 0 1 0 -4.26 0zM159.37 8.5 a2.13 2.13 0 1 0 4.26 0 a2.13 2.13 0 1 0 -4.26 0z" fill="black"></path>
            <path d="M397.37 212.5 a2.13 2.13 0 1 0 4.26 0 a2.13 2.13 0 1 0 -4.26 0zM448.37 212.5 a2.13 2.13 0 1 0 4.26 0 a2.13 2.13 0 1 0 -4.26 0z" fill="black"></path>
            <path d="M40.37 42.5 a2.13 2.13 0 1 0 4.26 0 a2.13 2.13 0 1 0 -4.26 0zM40.37 8.5 a2.13 2.13 0 1 0 4.26 0 a2.13 2.13 0 1 0 -4.26 0z" fill="black"></path>
            <path d="M74.37 161.5 a2.13 2.13 0 1 0 4.26 0 a2.13 2.13 0 1 0 -4.26 0zM74.37 195.5 a2.13 2.13 0 1 0 4.26 0 a2.13 2.13 0 1 0 -4.26 0z" fill="black"></path>
            <path d="M108.37 399.5 a2.13 2.13 0 1 0 4.26 0 a2.13 2.13 0 1 0 -4.26 0zM142.37 450.5 a2.13 2.13 0 1 0 4.26 0 a2.13 2.13 0 1 0 -4.26 0z" fill="black"></path>
            <path d="M414.37 8.5 a2.13 2.13 0 1 0 4.26 0 a2.13 2.13 0 1 0 -4.26 0zM278.37 42.5 a2.13 2.13 0 1 0 4.26 0 a2.13 2.13 0 1 0 -4.26 0z" fill="black"></path>
            <path d="M227.37 348.5 a2.13 2.13 0 1 0 4.26 0 a2.13 2.13 0 1 0 -4.26 0zM295.37 382.5 a2.13 2.13 0 1 0 4.26 0 a2.13 2.13 0 1 0 -4.26 0z" fill="black"></path>
            <path d="M448.37 467.5 a2.13 2.13 0 1 0 4.26 0 a2.13 2.13 0 1 0 -4.26 0zM499.37 467.5 a2.13 2.13 0 1 0 4.26 0 a2.13 2.13 0 1 0 -4.26 0z" fill="black"></path>
            <path d="M278.37 297.5 a2.13 2.13 0 1 0 4.26 0 a2.13 2.13 0 1 0 -4.26 0zM312.37 280.5 a2.13 2.13 0 1 0 4.26 0 a2.13 2.13 0 1 0 -4.26 0z" fill="black"></path>
            <path d="M108.37 195.5 a2.13 2.13 0 1 0 4.26 0 a2.13 2.13 0 1 0 -4.26 0zM159.37 144.5 a2.13 2.13 0 1 0 4.26 0 a2.13 2.13 0 1 0 -4.26 0z" fill="black"></path>
            <path d="M482.37 42.5 a2.13 2.13 0 1 0 4.26 0 a2.13 2.13 0 1 0 -4.26 0zM431.37 25.5 a2.13 2.13 0 1 0 4.26 0 a2.13 2.13 0 1 0 -4.26 0z" fill="black"></path>
            <path d="M499.37 314.5 a2.13 2.13 0 1 0 4.26 0 a2.13 2.13 0 1 0 -4.26 0zM193.37 93.5 a2.13 2.13 0 1 0 4.26 0 a2.13 2.13 0 1 0 -4.26 0z" fill="black"></path>
            <path d="M499.37 263.5 a2.13 2.13 0 1 0 4.26 0 a2.13 2.13 0 1 0 -4.26 0zM499.37 8.5 a2.13 2.13 0 1 0 4.26 0 a2.13 2.13 0 1 0 -4.26 0z" fill="black"></path>
            <path d="M482.37 127.5 a2.13 2.13 0 1 0 4.26 0 a2.13 2.13 0 1 0 -4.26 0zM482.37 263.5 a2.13 2.13 0 1 0 4.26 0 a2.13 2.13 0 1 0 -4.26 0z" fill="black"></path>
            <path d="M74.37 246.5 a2.13 2.13 0 1 0 4.26 0 a2.13 2.13 0 1 0 -4.26 0zM74.37 314.5 a2.13 2.13 0 1 0 4.26 0 a2.13 2.13 0 1 0 -4.26 0z" fill="black"></path>
            <path d="M23.37 93.5 a2.13 2.13 0 1 0 4.26 0 a2.13 2.13 0 1 0 -4.26 0zM125.37 8.5 a2.13 2.13 0 1 0 4.26 0 a2.13 2.13 0 1 0 -4.26 0z" fill="black"></path>
            <path d="M278.37 501.5 a2.13 2.13 0 1 0 4.26 0 a2.13 2.13 0 1 0 -4.26 0zM312.37 467.5 a2.13 2.13 0 1 0 4.26 0 a2.13 2.13 0 1 0 -4.26 0z" fill="black"></path>
            <path d="M278.37 467.5 a2.13 2.13 0 1 0 4.26 0 a2.13 2.13 0 1 0 -4.26 0zM193.37 501.5 a2.13 2.13 0 1 0 4.26 0 a2.13 2.13 0 1 0 -4.26 0z" fill="black"></path>
            <path d="M465.37 382.5 a2.13 2.13 0 1 0 4.26 0 a2.13 2.13 0 1 0 -4.26 0zM499.37 450.5 a2.13 2.13 0 1 0 4.26 0 a2.13 2.13 0 1 0 -4.26 0z" fill="black"></path>
            <path d="M159.37 212.5 a2.13 2.13 0 1 0 4.26 0 a2.13 2.13 0 1 0 -4.26 0zM227.37 212.5 a2.13 2.13 0 1 0 4.26 0 a2.13 2.13 0 1 0 -4.26 0z" fill="black"></path>
            <path d="M380.37 399.5 a2.13 2.13 0 1 0 4.26 0 a2.13 2.13 0 1 0 -4.26 0zM482.37 450.5 a2.13 2.13 0 1 0 4.26 0 a2.13 2.13 0 1 0 -4.26 0z" fill="black"></path>
            <path d="M380.37 416.5 a2.13 2.13 0 1 0 4.26 0 a2.13 2.13 0 1 0 -4.26 0zM499.37 484.5 a2.13 2.13 0 1 0 4.26 0 a2.13 2.13 0 1 0 -4.26 0z" fill="black"></path>
            <path d="M108.37 280.5 a2.13 2.13 0 1 0 4.26 0 a2.13 2.13 0 1 0 -4.26 0zM40.37 263.5 a2.13 2.13 0 1 0 4.26 0 a2.13 2.13 0 1 0 -4.26 0z" fill="black"></path>
            <path d="M244.37 263.5 a2.13 2.13 0 1 0 4.26 0 a2.13 2.13 0 1 0 -4.26 0zM159.37 365.5 a2.13 2.13 0 1 0 4.26 0 a2.13 2.13 0 1 0 -4.26 0z" fill="black"></path>
            <path d="M210.37 280.5 a2.13 2.13 0 1 0 4.26 0 a2.13 2.13 0 1 0 -4.26 0zM244.37 280.5 a2.13 2.13 0 1 0 4.26 0 a2.13 2.13 0 1 0 -4.26 0z" fill="black"></path>
            <path d="M397.37 127.5 a2.13 2.13 0 1 0 4.26 0 a2.13 2.13 0 1 0 -4.26 0zM431.37 127.5 a2.13 2.13 0 1 0 4.26 0 a2.13 2.13 0 1 0 -4.26 0z" fill="black"></path>
            <path d="M142.37 127.5 a2.13 2.13 0 1 0 4.26 0 a2.13 2.13 0 1 0 -4.26 0zM108.37 127.5 a2.13 2.13 0 1 0 4.26 0 a2.13 2.13 0 1 0 -4.26 0z" fill="black"></path>
            <path d="M108.37 8.5 a2.13 2.13 0 1 0 4.26 0 a2.13 2.13 0 1 0 -4.26 0zM57.37 8.5 a2.13 2.13 0 1 0 4.26 0 a2.13 2.13 0 1 0 -4.26 0z" fill="black"></path>
            <path d="M159.37 178.5 a2.13 2.13 0 1 0 4.26 0 a2.13 2.13 0 1 0 -4.26 0zM108.37 212.5 a2.13 2.13 0 1 0 4.26 0 a2.13 2.13 0 1 0 -4.26 0z" fill="black"></path>
            <path d="M363.37 178.5 a2.13 2.13 0 1 0 4.26 0 a2.13 2.13 0 1 0 -4.26 0zM431.37 178.5 a2.13 2.13 0 1 0 4.26 0 a2.13 2.13 0 1 0 -4.26 0z" fill="black"></path>
            <path d="M465.37 59.5 a2.13 2.13 0 1 0 4.26 0 a2.13 2.13 0 1 0 -4.26 0zM431.37 59.5 a2.13 2.13 0 1 0 4.26 0 a2.13 2.13 0 1 0 -4.26 0z" fill="black"></path>
            <path d="M193.37 314.5 a2.13 2.13 0 1 0 4.26 0 a2.13 2.13 0 1 0 -4.26 0zM244.37 297.5 a2.13 2.13 0 1 0 4.26 0 a2.13 2.13 0 1 0 -4.26 0z" fill="black"></path>
            <path d="M329.37 178.5 a2.13 2.13 0 1 0 4.26 0 a2.13 2.13 0 1 0 -4.26 0zM414.37 263.5 a2.13 2.13 0 1 0 4.26 0 a2.13 2.13 0 1 0 -4.26 0z" fill="black"></path>
            <path d="M125.37 501.5 a2.13 2.13 0 1 0 4.26 0 a2.13 2.13 0 1 0 -4.26 0zM6.37 501.5 a2.13 2.13 0 1 0 4.26 0 a2.13 2.13 0 1 0 -4.26 0z" fill="black"></path>
            <path d="M193.37 433.5 a2.13 2.13 0 1 0 4.26 0 a2.13 2.13 0 1 0 -4.26 0zM176.37 467.5 a2.13 2.13 0 1 0 4.26 0 a2.13 2.13 0 1 0 -4.26 0z" fill="black"></path>
            <path d="M142.37 212.5 a2.13 2.13 0 1 0 4.26 0 a2.13 2.13 0 1 0 -4.26 0zM193.37 229.5 a2.13 2.13 0 1 0 4.26 0 a2.13 2.13 0 1 0 -4.26 0z" fill="black"></path>
            <path d="M57.37 246.5 a2.13 2.13 0 1 0 4.26 0 a2.13 2.13 0 1 0 -4.26 0zM91.37 229.5 a2.13 2.13 0 1 0 4.26 0 a2.13 2.13 0 1 0 -4.26 0z" fill="black"></path>
            <path d="M261.37 144.5 a2.13 2.13 0 1 0 4.26 0 a2.13 2.13 0 1 0 -4.26 0zM227.37 59.5 a2.13 2.13 0 1 0 4.26 0 a2.13 2.13 0 1 0 -4.26 0z" fill="black"></path>
            <path d="M397.37 450.5 a2.13 2.13 0 1 0 4.26 0 a2.13 2.13 0 1 0 -4.26 0zM363.37 416.5 a2.13 2.13 0 1 0 4.26 0 a2.13 2.13 0 1 0 -4.26 0z" fill="black"></path>
            <path d="M6.37 365.5 a2.13 2.13 0 1 0 4.26 0 a2.13 2.13 0 1 0 -4.26 0zM6.37 484.5 a2.13 2.13 0 1 0 4.26 0 a2.13 2.13 0 1 0 -4.26 0z" fill="black"></path>
            <path d="M363.37 110.5 a2.13 2.13 0 1 0 4.26 0 a2.13 2.13 0 1 0 -4.26 0zM295.37 93.5 a2.13 2.13 0 1 0 4.26 0 a2.13 2.13 0 1 0 -4.26 0z" fill="black"></path>
            <path d="M380.37 110.5 a2.13 2.13 0 1 0 4.26 0 a2.13 2.13 0 1 0 -4.26 0zM414.37 110.5 a2.13 2.13 0 1 0 4.26 0 a2.13 2.13 0 1 0 -4.26 0z" fill="black"></path>
            <path d="M74.37 433.5 a2.13 2.13 0 1 0 4.26 0 a2.13 2.13 0 1 0 -4.26 0zM74.37 399.5 a2.13 2.13 0 1 0 4.26 0 a2.13 2.13 0 1 0 -4.26 0z" fill="black"></path>
            <path d="M380.37 195.5 a2.13 2.13 0 1 0 4.26 0 a2.13 2.13 0 1 0 -4.26 0zM346.37 229.5 a2.13 2.13 0 1 0 4.26 0 a2.13 2.13 0 1 0 -4.26 0z" fill="black"></path>
            <path d="M295.37 178.5 a2.13 2.13 0 1 0 4.26 0 a2.13 2.13 0 1 0 -4.26 0zM312.37 212.5 a2.13 2.13 0 1 0 4.26 0 a2.13 2.13 0 1 0 -4.26 0z" fill="black"></path>
            <path d="M193.37 399.5 a2.13 2.13 0 1 0 4.26 0 a2.13 2.13 0 1 0 -4.26 0zM176.37 433.5 a2.13 2.13 0 1 0 4.26 0 a2.13 2.13 0 1 0 -4.26 0z" fill="black"></path>
            <path d="M159.37 76.5 a2.13 2.13 0 1 0 4.26 0 a2.13 2.13 0 1 0 -4.26 0zM193.37 25.5 a2.13 2.13 0 1 0 4.26 0 a2.13 2.13 0 1 0 -4.26 0z" fill="black"></path>
            <path d="M125.37 297.5 a2.13 2.13 0 1 0 4.26 0 a2.13 2.13 0 1 0 -4.26 0zM91.37 314.5 a2.13 2.13 0 1 0 4.26 0 a2.13 2.13 0 1 0 -4.26 0z" fill="black"></path>
            <path d="M363.37 450.5 a2.13 2.13 0 1 0 4.26 0 a2.13 2.13 0 1 0 -4.26 0zM431.37 484.5 a2.13 2.13 0 1 0 4.26 0 a2.13 2.13 0 1 0 -4.26 0z" fill="black"></path>
            <path d="M380.37 42.5 a2.13 2.13 0 1 0 4.26 0 a2.13 2.13 0 1 0 -4.26 0zM329.37 42.5 a2.13 2.13 0 1 0 4.26 0 a2.13 2.13 0 1 0 -4.26 0z" fill="black"></path>
            <path d="M91.37 467.5 a2.13 2.13 0 1 0 4.26 0 a2.13 2.13 0 1 0 -4.26 0zM91.37 433.5 a2.13 2.13 0 1 0 4.26 0 a2.13 2.13 0 1 0 -4.26 0z" fill="black"></path>
            <path d="M329.37 331.5 a2.13 2.13 0 1 0 4.26 0 a2.13 2.13 0 1 0 -4.26 0zM278.37 365.5 a2.13 2.13 0 1 0 4.26 0 a2.13 2.13 0 1 0 -4.26 0z" fill="black"></path>
            <path d="M295.37 144.5 a2.13 2.13 0 1 0 4.26 0 a2.13 2.13 0 1 0 -4.26 0zM261.37 161.5 a2.13 2.13 0 1 0 4.26 0 a2.13 2.13 0 1 0 -4.26 0z" fill="black"></path>
            <path d="M57.37 195.5 a2.13 2.13 0 1 0 4.26 0 a2.13 2.13 0 1 0 -4.26 0zM57.37 161.5 a2.13 2.13 0 1 0 4.26 0 a2.13 2.13 0 1 0 -4.26 0z" fill="black"></path>
            <path d="M40.37 195.5 a2.13 2.13 0 1 0 4.26 0 a2.13 2.13 0 1 0 -4.26 0zM23.37 229.5 a2.13 2.13 0 1 0 4.26 0 a2.13 2.13 0 1 0 -4.26 0z" fill="black"></path>
            <path d="M227.37 331.5 a2.13 2.13 0 1 0 4.26 0 a2.13 2.13 0 1 0 -4.26 0zM176.37 365.5 a2.13 2.13 0 1 0 4.26 0 a2.13 2.13 0 1 0 -4.26 0z" fill="black"></path>
            <path d="M448.37 433.5 a2.13 2.13 0 1 0 4.26 0 a2.13 2.13 0 1 0 -4.26 0zM397.37 416.5 a2.13 2.13 0 1 0 4.26 0 a2.13 2.13 0 1 0 -4.26 0z" fill="black"></path>
            <path d="M142.37 501.5 a2.13 2.13 0 1 0 4.26 0 a2.13 2.13 0 1 0 -4.26 0zM108.37 450.5 a2.13 2.13 0 1 0 4.26 0 a2.13 2.13 0 1 0 -4.26 0z" fill="black"></path>
            <path d="M57.37 93.5 a2.13 2.13 0 1 0 4.26 0 a2.13 2.13 0 1 0 -4.26 0zM23.37 8.5 a2.13 2.13 0 1 0 4.26 0 a2.13 2.13 0 1 0 -4.26 0z" fill="black"></path>
            <path d="M465.37 76.5 a2.13 2.13 0 1 0 4.26 0 a2.13 2.13 0 1 0 -4.26 0zM465.37 127.5 a2.13 2.13 0 1 0 4.26 0 a2.13 2.13 0 1 0 -4.26 0z" fill="black"></path>
            <path d="M346.37 110.5 a2.13 2.13 0 1 0 4.26 0 a2.13 2.13 0 1 0 -4.26 0zM380.37 127.5 a2.13 2.13 0 1 0 4.26 0 a2.13 2.13 0 1 0 -4.26 0z" fill="black"></path>
            <path d="M465.37 348.5 a2.13 2.13 0 1 0 4.26 0 a2.13 2.13 0 1 0 -4.26 0zM414.37 348.5 a2.13 2.13 0 1 0 4.26 0 a2.13 2.13 0 1 0 -4.26 0z" fill="black"></path>
            <path d="M295.37 348.5 a2.13 2.13 0 1 0 4.26 0 a2.13 2.13 0 1 0 -4.26 0zM346.37 348.5 a2.13 2.13 0 1 0 4.26 0 a2.13 2.13 0 1 0 -4.26 0z" fill="black"></path>
            <path d="M380.37 212.5 a2.13 2.13 0 1 0 4.26 0 a2.13 2.13 0 1 0 -4.26 0zM363.37 246.5 a2.13 2.13 0 1 0 4.26 0 a2.13 2.13 0 1 0 -4.26 0z" fill="black"></path>
            <path d="M142.37 399.5 a2.13 2.13 0 1 0 4.26 0 a2.13 2.13 0 1 0 -4.26 0zM142.37 433.5 a2.13 2.13 0 1 0 4.26 0 a2.13 2.13 0 1 0 -4.26 0z" fill="black"></path>
            <path d="M57.37 484.5 a2.13 2.13 0 1 0 4.26 0 a2.13 2.13 0 1 0 -4.26 0zM108.37 484.5 a2.13 2.13 0 1 0 4.26 0 a2.13 2.13 0 1 0 -4.26 0z" fill="black"></path>
            <path d="M431.37 212.5 a2.13 2.13 0 1 0 4.26 0 a2.13 2.13 0 1 0 -4.26 0zM397.37 195.5 a2.13 2.13 0 1 0 4.26 0 a2.13 2.13 0 1 0 -4.26 0z" fill="black"></path>
            <path d="M40.37 76.5 a2.13 2.13 0 1 0 4.26 0 a2.13 2.13 0 1 0 -4.26 0zM91.37 59.5 a2.13 2.13 0 1 0 4.26 0 a2.13 2.13 0 1 0 -4.26 0z" fill="black"></path>
            <path d="M346.37 127.5 a2.13 2.13 0 1 0 4.26 0 a2.13 2.13 0 1 0 -4.26 0zM312.37 110.5 a2.13 2.13 0 1 0 4.26 0 a2.13 2.13 0 1 0 -4.26 0z" fill="black"></path>
            <path d="M295.37 501.5 a2.13 2.13 0 1 0 4.26 0 a2.13 2.13 0 1 0 -4.26 0zM363.37 501.5 a2.13 2.13 0 1 0 4.26 0 a2.13 2.13 0 1 0 -4.26 0z" fill="black"></path>
            <path d="M227.37 416.5 a2.13 2.13 0 1 0 4.26 0 a2.13 2.13 0 1 0 -4.26 0zM261.37 433.5 a2.13 2.13 0 1 0 4.26 0 a2.13 2.13 0 1 0 -4.26 0z" fill="black"></path>
            <path d="M57.37 25.5 a2.13 2.13 0 1 0 4.26 0 a2.13 2.13 0 1 0 -4.26 0zM74.37 59.5 a2.13 2.13 0 1 0 4.26 0 a2.13 2.13 0 1 0 -4.26 0z" fill="black"></path>
            <path d="M108.37 297.5 a2.13 2.13 0 1 0 4.26 0 a2.13 2.13 0 1 0 -4.26 0zM57.37 280.5 a2.13 2.13 0 1 0 4.26 0 a2.13 2.13 0 1 0 -4.26 0z" fill="black"></path>
            <path d="M414.37 467.5 a2.13 2.13 0 1 0 4.26 0 a2.13 2.13 0 1 0 -4.26 0zM380.37 467.5 a2.13 2.13 0 1 0 4.26 0 a2.13 2.13 0 1 0 -4.26 0z" fill="black"></path>
            <path d="M414.37 297.5 a2.13 2.13 0 1 0 4.26 0 a2.13 2.13 0 1 0 -4.26 0zM448.37 280.5 a2.13 2.13 0 1 0 4.26 0 a2.13 2.13 0 1 0 -4.26 0z" fill="black"></path>
            <path d="M278.37 127.5 a2.13 2.13 0 1 0 4.26 0 a2.13 2.13 0 1 0 -4.26 0zM227.37 93.5 a2.13 2.13 0 1 0 4.26 0 a2.13 2.13 0 1 0 -4.26 0z" fill="black"></path>
            <path d="M74.37 467.5 a2.13 2.13 0 1 0 4.26 0 a2.13 2.13 0 1 0 -4.26 0zM57.37 416.5 a2.13 2.13 0 1 0 4.26 0 a2.13 2.13 0 1 0 -4.26 0z" fill="black"></path>
            <path d="M210.37 331.5 a2.13 2.13 0 1 0 4.26 0 a2.13 2.13 0 1 0 -4.26 0zM176.37 348.5 a2.13 2.13 0 1 0 4.26 0 a2.13 2.13 0 1 0 -4.26 0z" fill="black"></path>
        </mask>
    </defs>
</svg>