<svg xmlns="http://www.w3.org/2000/svg" width="360" height="360" preserveAspectRatio="none" viewBox="0 0 360 360">
  <g mask="url(&quot;#a&quot;)">
    <g fill="none" mask="url(&quot;#b&quot;)">
      <path stroke="rgba(26, 26, 26, 1)" stroke-width="2" d="m6 282 72 72h72l84-84"/>
      <path fill="rgba(26, 26, 26, 1)" d="M3 282a3 3 0 1 0 6 0 3 3 0 1 0-6 0zm228-12a3 3 0 1 0 6 0 3 3 0 1 0-6 0z"/>
      <path stroke="rgba(26, 26, 26, 1)" stroke-width="2" d="M234 42 6 270"/>
      <path fill="rgba(26, 26, 26, 1)" d="M231 42a3 3 0 1 0 6 0 3 3 0 1 0-6 0zM3 270a3 3 0 1 0 6 0 3 3 0 1 0-6 0z"/>
      <path stroke="rgba(26, 26, 26, 1)" stroke-width="2" d="m138 330-12 12H78l-60-60v-12l72-72h12l12-12"/>
      <path fill="rgba(26, 26, 26, 1)" d="M135 330a3 3 0 1 0 6 0 3 3 0 1 0-6 0zm-24-144a3 3 0 1 0 6 0 3 3 0 1 0-6 0z"/>
      <path stroke="rgba(26, 26, 26, 1)" stroke-width="2" d="M222 90h-24l-60 60v12l96 96h36"/>
      <path fill="rgba(26, 26, 26, 1)" d="M219 90a3 3 0 1 0 6 0 3 3 0 1 0-6 0zm48 168a3 3 0 1 0 6 0 3 3 0 1 0-6 0z"/>
      <path stroke="rgba(26, 26, 26, 1)" stroke-width="2" d="M30 90V42L6 18V6"/>
      <path fill="rgba(26, 26, 26, 1)" d="M27 90a3 3 0 1 0 6 0 3 3 0 1 0-6 0zM3 6a3 3 0 1 0 6 0 3 3 0 1 0-6 0z"/>
      <path stroke="rgba(26, 26, 26, 1)" stroke-width="2" d="M342 90h-24l-24-24h-72l-12 12"/>
      <path fill="rgba(26, 26, 26, 1)" d="M339 90a3 3 0 1 0 6 0 3 3 0 1 0-6 0zM207 78a3 3 0 1 0 6 0 3 3 0 1 0-6 0z"/>
      <path stroke="rgba(26, 26, 26, 1)" stroke-width="2" d="M294 258V150l48-48h12"/>
      <path fill="rgba(26, 26, 26, 1)" d="M291 258a3 3 0 1 0 6 0 3 3 0 1 0-6 0zm60-156a3 3 0 1 0 6 0 3 3 0 1 0-6 0z"/>
      <path stroke="rgba(26, 26, 26, 1)" stroke-width="2" d="m354 198-24 24v132"/>
      <path fill="rgba(26, 26, 26, 1)" d="M351 198a3 3 0 1 0 6 0 3 3 0 1 0-6 0zm-24 156a3 3 0 1 0 6 0 3 3 0 1 0-6 0z"/>
      <path stroke="rgba(26, 26, 26, 1)" stroke-width="2" d="m258 210-36-36v-60l36-36h36l24 24h12"/>
      <path fill="rgba(26, 26, 26, 1)" d="M255 210a3 3 0 1 0 6 0 3 3 0 1 0-6 0zm72-108a3 3 0 1 0 6 0 3 3 0 1 0-6 0z"/>
      <path stroke="rgba(26, 26, 26, 1)" stroke-width="2" d="M162 270h-24l-36-36v-24l12-12h48l60 60v12l-12 12"/>
      <path fill="rgba(26, 26, 26, 1)" d="M159 270a3 3 0 1 0 6 0 3 3 0 1 0-6 0zm48 12a3 3 0 1 0 6 0 3 3 0 1 0-6 0z"/>
      <path stroke="rgba(26, 26, 26, 1)" stroke-width="2" d="M222 354h96"/>
      <path fill="rgba(26, 26, 26, 1)" d="M219 354a3 3 0 1 0 6 0 3 3 0 1 0-6 0zm96 0a3 3 0 1 0 6 0 3 3 0 1 0-6 0z"/>
      <path stroke="rgba(26, 26, 26, 1)" stroke-width="2" d="M54 126h84l48-48V42L150 6h-24"/>
      <path fill="rgba(26, 26, 26, 1)" d="M51 126a3 3 0 1 0 6 0 3 3 0 1 0-6 0zM123 6a3 3 0 1 0 6 0 3 3 0 1 0-6 0z"/>
      <path stroke="rgba(26, 26, 26, 1)" stroke-width="2" d="M270 294h-24l-12-12"/>
      <path fill="rgba(26, 26, 26, 1)" d="M267 294a3 3 0 1 0 6 0 3 3 0 1 0-6 0zm-36-12a3 3 0 1 0 6 0 3 3 0 1 0-6 0z"/>
      <path stroke="rgba(26, 26, 26, 1)" stroke-width="2" d="M150 294h12l36-36v-12l-36-36h-48"/>
      <path fill="rgba(26, 26, 26, 1)" d="M147 294a3 3 0 1 0 6 0 3 3 0 1 0-6 0zm-36-84a3 3 0 1 0 6 0 3 3 0 1 0-6 0z"/>
      <path stroke="rgba(26, 26, 26, 1)" stroke-width="2" d="M114 138H6"/>
      <path fill="rgba(26, 26, 26, 1)" d="M111 138a3 3 0 1 0 6 0 3 3 0 1 0-6 0zM3 138a3 3 0 1 0 6 0 3 3 0 1 0-6 0z"/>
      <path stroke="rgba(26, 26, 26, 1)" stroke-width="2" d="m306 150 36-36h12"/>
      <path fill="rgba(26, 26, 26, 1)" d="M303 150a3 3 0 1 0 6 0 3 3 0 1 0-6 0zm48-36a3 3 0 1 0 6 0 3 3 0 1 0-6 0z"/>
      <path stroke="rgba(26, 26, 26, 1)" stroke-width="2" d="M354 270v-24l-12-12v-12l12-12"/>
      <path fill="rgba(26, 26, 26, 1)" d="M351 270a3 3 0 1 0 6 0 3 3 0 1 0-6 0zm0-60a3 3 0 1 0 6 0 3 3 0 1 0-6 0z"/>
      <path stroke="rgba(26, 26, 26, 1)" stroke-width="2" d="M90 162 6 246v12"/>
      <path fill="rgba(26, 26, 26, 1)" d="M87 162a3 3 0 1 0 6 0 3 3 0 1 0-6 0zM3 258a3 3 0 1 0 6 0 3 3 0 1 0-6 0z"/>
      <path stroke="rgba(26, 26, 26, 1)" stroke-width="2" d="M18 354h48"/>
      <path fill="rgba(26, 26, 26, 1)" d="M15 354a3 3 0 1 0 6 0 3 3 0 1 0-6 0zm48 0a3 3 0 1 0 6 0 3 3 0 1 0-6 0z"/>
      <path stroke="rgba(26, 26, 26, 1)" stroke-width="2" d="m210 54 12-12V6"/>
      <path fill="rgba(26, 26, 26, 1)" d="M207 54a3 3 0 1 0 6 0 3 3 0 1 0-6 0zm12-48a3 3 0 1 0 6 0 3 3 0 1 0-6 0z"/>
      <path stroke="rgba(26, 26, 26, 1)" stroke-width="2" d="M54 174v12L6 234"/>
      <path fill="rgba(26, 26, 26, 1)" d="M51 174a3 3 0 1 0 6 0 3 3 0 1 0-6 0zM3 234a3 3 0 1 0 6 0 3 3 0 1 0-6 0z"/>
      <path stroke="rgba(26, 26, 26, 1)" stroke-width="2" d="m342 6-48 48h-60"/>
      <path fill="rgba(26, 26, 26, 1)" d="M339 6a3 3 0 1 0 6 0 3 3 0 1 0-6 0zM231 54a3 3 0 1 0 6 0 3 3 0 1 0-6 0z"/>
      <path stroke="rgba(26, 26, 26, 1)" stroke-width="2" d="M42 270v-12l48-48"/>
      <path fill="rgba(26, 26, 26, 1)" d="M39 270a3 3 0 1 0 6 0 3 3 0 1 0-6 0zm48-60a3 3 0 1 0 6 0 3 3 0 1 0-6 0z"/>
      <path stroke="rgba(26, 26, 26, 1)" stroke-width="2" d="M18 90 6 78V66l12-12V42L6 30"/>
      <path fill="rgba(26, 26, 26, 1)" d="M15 90a3 3 0 1 0 6 0 3 3 0 1 0-6 0zM3 30a3 3 0 1 0 6 0 3 3 0 1 0-6 0z"/>
      <path stroke="rgba(26, 26, 26, 1)" stroke-width="2" d="M90 246H66l-12 12v24l48 48h24l24-24h36l12-12v-24"/>
      <path fill="rgba(26, 26, 26, 1)" d="M87 246a3 3 0 1 0 6 0 3 3 0 1 0-6 0zm108 24a3 3 0 1 0 6 0 3 3 0 1 0-6 0z"/>
      <path stroke="rgba(26, 26, 26, 1)" stroke-width="2" d="M42 126 6 90"/>
      <path fill="rgba(26, 26, 26, 1)" d="M39 126a3 3 0 1 0 6 0 3 3 0 1 0-6 0zM3 90a3 3 0 1 0 6 0 3 3 0 1 0-6 0z"/>
      <path stroke="rgba(26, 26, 26, 1)" stroke-width="2" d="M210 354v-24l-12-12"/>
      <path fill="rgba(26, 26, 26, 1)" d="M207 354a3 3 0 1 0 6 0 3 3 0 1 0-6 0zm-12-36a3 3 0 1 0 6 0 3 3 0 1 0-6 0z"/>
      <path stroke="rgba(26, 26, 26, 1)" stroke-width="2" d="M270 222V90"/>
      <path fill="rgba(26, 26, 26, 1)" d="M267 222a3 3 0 1 0 6 0 3 3 0 1 0-6 0zm0-132a3 3 0 1 0 6 0 3 3 0 1 0-6 0z"/>
      <path stroke="rgba(26, 26, 26, 1)" stroke-width="2" d="m198 186 12-12v-60l12-12"/>
      <path fill="rgba(26, 26, 26, 1)" d="M195 186a3 3 0 1 0 6 0 3 3 0 1 0-6 0zm24-84a3 3 0 1 0 6 0 3 3 0 1 0-6 0z"/>
      <path stroke="rgba(26, 26, 26, 1)" stroke-width="2" d="M258 30h48l24-24"/>
      <path fill="rgba(26, 26, 26, 1)" d="M255 30a3 3 0 1 0 6 0 3 3 0 1 0-6 0zm72-24a3 3 0 1 0 6 0 3 3 0 1 0-6 0z"/>
      <path stroke="rgba(26, 26, 26, 1)" stroke-width="2" d="M126 18h12l36 36v24l-36 36H54l-12-12H30"/>
      <path fill="rgba(26, 26, 26, 1)" d="M123 18a3 3 0 1 0 6 0 3 3 0 1 0-6 0zm-96 84a3 3 0 1 0 6 0 3 3 0 1 0-6 0z"/>
      <path stroke="rgba(26, 26, 26, 1)" stroke-width="2" d="M282 222v120"/>
      <path fill="rgba(26, 26, 26, 1)" d="M279 222a3 3 0 1 0 6 0 3 3 0 1 0-6 0zm0 120a3 3 0 1 0 6 0 3 3 0 1 0-6 0z"/>
      <path stroke="rgba(26, 26, 26, 1)" stroke-width="2" d="m306 282 12 12v48"/>
      <path fill="rgba(26, 26, 26, 1)" d="M303 282a3 3 0 1 0 6 0 3 3 0 1 0-6 0zm12 60a3 3 0 1 0 6 0 3 3 0 1 0-6 0z"/>
      <path stroke="rgba(26, 26, 26, 1)" stroke-width="2" d="M246 150v-48l12-12"/>
      <path fill="rgba(26, 26, 26, 1)" d="M243 150a3 3 0 1 0 6 0 3 3 0 1 0-6 0zm12-60a3 3 0 1 0 6 0 3 3 0 1 0-6 0z"/>
      <path stroke="rgba(26, 26, 26, 1)" stroke-width="2" d="M42 174v12L6 222"/>
      <path fill="rgba(26, 26, 26, 1)" d="M39 174a3 3 0 1 0 6 0 3 3 0 1 0-6 0zM3 222a3 3 0 1 0 6 0 3 3 0 1 0-6 0z"/>
      <path stroke="rgba(26, 26, 26, 1)" stroke-width="2" d="M294 126h12l12-12"/>
      <path fill="rgba(26, 26, 26, 1)" d="M291 126a3 3 0 1 0 6 0 3 3 0 1 0-6 0zm24-12a3 3 0 1 0 6 0 3 3 0 1 0-6 0z"/>
      <path stroke="rgba(26, 26, 26, 1)" stroke-width="2" d="M54 102V90L42 78V6"/>
      <path fill="rgba(26, 26, 26, 1)" d="M51 102a3 3 0 1 0 6 0 3 3 0 1 0-6 0zM39 6a3 3 0 1 0 6 0 3 3 0 1 0-6 0z"/>
      <path stroke="rgba(26, 26, 26, 1)" stroke-width="2" d="M282 114v96"/>
      <path fill="rgba(26, 26, 26, 1)" d="M279 114a3 3 0 1 0 6 0 3 3 0 1 0-6 0zm0 96a3 3 0 1 0 6 0 3 3 0 1 0-6 0z"/>
      <path stroke="rgba(26, 26, 26, 1)" stroke-width="2" d="M78 18v84"/>
      <path fill="rgba(26, 26, 26, 1)" d="M75 18a3 3 0 1 0 6 0 3 3 0 1 0-6 0zm0 84a3 3 0 1 0 6 0 3 3 0 1 0-6 0z"/>
      <path stroke="rgba(26, 26, 26, 1)" stroke-width="2" d="M246 234v-12l-36-36"/>
      <path fill="rgba(26, 26, 26, 1)" d="M243 234a3 3 0 1 0 6 0 3 3 0 1 0-6 0zm-36-48a3 3 0 1 0 6 0 3 3 0 1 0-6 0z"/>
      <path stroke="rgba(26, 26, 26, 1)" stroke-width="2" d="M162 174v-24l48-48"/>
      <path fill="rgba(26, 26, 26, 1)" d="M159 174a3 3 0 1 0 6 0 3 3 0 1 0-6 0zm48-72a3 3 0 1 0 6 0 3 3 0 1 0-6 0z"/>
      <path stroke="rgba(26, 26, 26, 1)" stroke-width="2" d="M102 6v96"/>
      <path fill="rgba(26, 26, 26, 1)" d="M99 6a3 3 0 1 0 6 0 3 3 0 1 0-6 0zm0 96a3 3 0 1 0 6 0 3 3 0 1 0-6 0z"/>
      <path stroke="rgba(26, 26, 26, 1)" stroke-width="2" d="M162 66v12l-24 24h-12l-12-12V66l24-24V30"/>
      <path fill="rgba(26, 26, 26, 1)" d="M159 66a3 3 0 1 0 6 0 3 3 0 1 0-6 0zm-24-36a3 3 0 1 0 6 0 3 3 0 1 0-6 0z"/>
      <path stroke="rgba(26, 26, 26, 1)" stroke-width="2" d="m234 30 12-12V6"/>
      <path fill="rgba(26, 26, 26, 1)" d="M231 30a3 3 0 1 0 6 0 3 3 0 1 0-6 0zm12-24a3 3 0 1 0 6 0 3 3 0 1 0-6 0z"/>
      <path stroke="rgba(26, 26, 26, 1)" stroke-width="2" d="M30 174 6 198v12"/>
      <path fill="rgba(26, 26, 26, 1)" d="M27 174a3 3 0 1 0 6 0 3 3 0 1 0-6 0zM3 210a3 3 0 1 0 6 0 3 3 0 1 0-6 0z"/>
      <path stroke="rgba(26, 26, 26, 1)" stroke-width="2" d="M234 222h-24l-36-36v-36l12-12h12"/>
      <path fill="rgba(26, 26, 26, 1)" d="M231 222a3 3 0 1 0 6 0 3 3 0 1 0-6 0zm-36-84a3 3 0 1 0 6 0 3 3 0 1 0-6 0z"/>
      <path stroke="rgba(26, 26, 26, 1)" stroke-width="2" d="m354 66-12 12h-24l-12-12V54l12-12h12l24-24V6"/>
      <path fill="rgba(26, 26, 26, 1)" d="M351 66a3 3 0 1 0 6 0 3 3 0 1 0-6 0zm0-60a3 3 0 1 0 6 0 3 3 0 1 0-6 0z"/>
      <path stroke="rgba(26, 26, 26, 1)" stroke-width="2" d="M330 150h-12l-12 12v48l12 12v60"/>
      <path fill="rgba(26, 26, 26, 1)" d="M327 150a3 3 0 1 0 6 0 3 3 0 1 0-6 0zm-12 132a3 3 0 1 0 6 0 3 3 0 1 0-6 0z"/>
      <path stroke="rgba(26, 26, 26, 1)" stroke-width="2" d="M126 294v-24l-24-24"/>
      <path fill="rgba(26, 26, 26, 1)" d="M123 294a3 3 0 1 0 6 0 3 3 0 1 0-6 0zm-24-48a3 3 0 1 0 6 0 3 3 0 1 0-6 0z"/>
      <path stroke="rgba(26, 26, 26, 1)" stroke-width="2" d="m342 330 12 12v12"/>
      <path fill="rgba(26, 26, 26, 1)" d="M339 330a3 3 0 1 0 6 0 3 3 0 1 0-6 0zm12 24a3 3 0 1 0 6 0 3 3 0 1 0-6 0z"/>
      <path stroke="rgba(26, 26, 26, 1)" stroke-width="2" d="m246 318 12-12h12"/>
      <path fill="rgba(26, 26, 26, 1)" d="M243 318a3 3 0 1 0 6 0 3 3 0 1 0-6 0zm24-12a3 3 0 1 0 6 0 3 3 0 1 0-6 0z"/>
      <path stroke="rgba(26, 26, 26, 1)" stroke-width="2" d="M90 258h12l12 12v48"/>
      <path fill="rgba(26, 26, 26, 1)" d="M87 258a3 3 0 1 0 6 0 3 3 0 1 0-6 0zm24 60a3 3 0 1 0 6 0 3 3 0 1 0-6 0z"/>
      <path stroke="rgba(26, 26, 26, 1)" stroke-width="2" d="m78 258 24 24v36"/>
      <path fill="rgba(26, 26, 26, 1)" d="M75 258a3 3 0 1 0 6 0 3 3 0 1 0-6 0zm24 60a3 3 0 1 0 6 0 3 3 0 1 0-6 0z"/>
      <path stroke="rgba(26, 26, 26, 1)" stroke-width="2" d="M90 294v-12l-24-24"/>
      <path fill="rgba(26, 26, 26, 1)" d="M87 294a3 3 0 1 0 6 0 3 3 0 1 0-6 0zm-24-36a3 3 0 1 0 6 0 3 3 0 1 0-6 0z"/>
      <path stroke="rgba(26, 26, 26, 1)" stroke-width="2" d="M186 18v12l12 12h12"/>
      <path fill="rgba(26, 26, 26, 1)" d="M183 18a3 3 0 1 0 6 0 3 3 0 1 0-6 0zm24 24a3 3 0 1 0 6 0 3 3 0 1 0-6 0z"/>
      <path stroke="rgba(26, 26, 26, 1)" stroke-width="2" d="M90 30v72"/>
      <path fill="rgba(26, 26, 26, 1)" d="M87 30a3 3 0 1 0 6 0 3 3 0 1 0-6 0zm0 72a3 3 0 1 0 6 0 3 3 0 1 0-6 0z"/>
      <path stroke="rgba(26, 26, 26, 1)" stroke-width="2" d="M354 162h-36"/>
      <path fill="rgba(26, 26, 26, 1)" d="M351 162a3 3 0 1 0 6 0 3 3 0 1 0-6 0zm-36 0a3 3 0 1 0 6 0 3 3 0 1 0-6 0z"/>
      <path stroke="rgba(26, 26, 26, 1)" stroke-width="2" d="M30 6v24"/>
      <path fill="rgba(26, 26, 26, 1)" d="M27 6a3 3 0 1 0 6 0 3 3 0 1 0-6 0zm0 24a3 3 0 1 0 6 0 3 3 0 1 0-6 0z"/>
      <path stroke="rgba(26, 26, 26, 1)" stroke-width="2" d="M186 150v12l12 12"/>
      <path fill="rgba(26, 26, 26, 1)" d="M183 150a3 3 0 1 0 6 0 3 3 0 1 0-6 0zm12 24a3 3 0 1 0 6 0 3 3 0 1 0-6 0z"/>
      <path stroke="rgba(26, 26, 26, 1)" stroke-width="2" d="M306 258v12l-12 12v60"/>
      <path fill="rgba(26, 26, 26, 1)" d="M303 258a3 3 0 1 0 6 0 3 3 0 1 0-6 0zm-12 84a3 3 0 1 0 6 0 3 3 0 1 0-6 0z"/>
      <path stroke="rgba(26, 26, 26, 1)" stroke-width="2" d="M30 282h12l48 48"/>
      <path fill="rgba(26, 26, 26, 1)" d="M27 282a3 3 0 1 0 6 0 3 3 0 1 0-6 0zm60 48a3 3 0 1 0 6 0 3 3 0 1 0-6 0z"/>
      <path stroke="rgba(26, 26, 26, 1)" stroke-width="2" d="M354 42h-12l-24 24"/>
      <path fill="rgba(26, 26, 26, 1)" d="M351 42a3 3 0 1 0 6 0 3 3 0 1 0-6 0zm-36 24a3 3 0 1 0 6 0 3 3 0 1 0-6 0z"/>
      <path stroke="rgba(26, 26, 26, 1)" stroke-width="2" d="m294 6-12 12h-24"/>
      <path fill="rgba(26, 26, 26, 1)" d="M291 6a3 3 0 1 0 6 0 3 3 0 1 0-6 0zm-36 12a3 3 0 1 0 6 0 3 3 0 1 0-6 0z"/>
      <path stroke="rgba(26, 26, 26, 1)" stroke-width="2" d="m162 354 24-24h12"/>
      <path fill="rgba(26, 26, 26, 1)" d="M159 354a3 3 0 1 0 6 0 3 3 0 1 0-6 0zm36-24a3 3 0 1 0 6 0 3 3 0 1 0-6 0z"/>
      <path stroke="rgba(26, 26, 26, 1)" stroke-width="2" d="M150 54h-12l-12 12v24"/>
      <path fill="rgba(26, 26, 26, 1)" d="M147 54a3 3 0 1 0 6 0 3 3 0 1 0-6 0zm-24 36a3 3 0 1 0 6 0 3 3 0 1 0-6 0z"/>
      <path stroke="rgba(26, 26, 26, 1)" stroke-width="2" d="M150 246h24l12 12"/>
      <path fill="rgba(26, 26, 26, 1)" d="M147 246a3 3 0 1 0 6 0 3 3 0 1 0-6 0zm36 12a3 3 0 1 0 6 0 3 3 0 1 0-6 0z"/>
      <path stroke="rgba(26, 26, 26, 1)" stroke-width="2" d="M66 6h24"/>
      <path fill="rgba(26, 26, 26, 1)" d="M63 6a3 3 0 1 0 6 0 3 3 0 1 0-6 0zm24 0a3 3 0 1 0 6 0 3 3 0 1 0-6 0z"/>
      <path stroke="rgba(26, 26, 26, 1)" stroke-width="2" d="M78 150H66l-12 12H42"/>
      <path fill="rgba(26, 26, 26, 1)" d="M75 150a3 3 0 1 0 6 0 3 3 0 1 0-6 0zm-36 12a3 3 0 1 0 6 0 3 3 0 1 0-6 0z"/>
      <path stroke="rgba(26, 26, 26, 1)" stroke-width="2" d="M306 330v-36"/>
      <path fill="rgba(26, 26, 26, 1)" d="M303 330a3 3 0 1 0 6 0 3 3 0 1 0-6 0zm0-36a3 3 0 1 0 6 0 3 3 0 1 0-6 0z"/>
      <path stroke="rgba(26, 26, 26, 1)" stroke-width="2" d="M30 126 6 102"/>
      <path fill="rgba(26, 26, 26, 1)" d="M27 126a3 3 0 1 0 6 0 3 3 0 1 0-6 0zM3 102a3 3 0 1 0 6 0 3 3 0 1 0-6 0z"/>
      <path stroke="rgba(26, 26, 26, 1)" stroke-width="2" d="M138 90V66"/>
      <path fill="rgba(26, 26, 26, 1)" d="M135 90a3 3 0 1 0 6 0 3 3 0 1 0-6 0zm0-24a3 3 0 1 0 6 0 3 3 0 1 0-6 0z"/>
      <path stroke="rgba(26, 26, 26, 1)" stroke-width="2" d="M66 30 54 18V6"/>
      <path fill="rgba(26, 26, 26, 1)" d="M63 30a3 3 0 1 0 6 0 3 3 0 1 0-6 0zM51 6a3 3 0 1 0 6 0 3 3 0 1 0-6 0z"/>
      <path stroke="rgba(26, 26, 26, 1)" stroke-width="2" d="M246 342v-12l-24-24v-12"/>
      <path fill="rgba(26, 26, 26, 1)" d="M243 342a3 3 0 1 0 6 0 3 3 0 1 0-6 0zm-24-48a3 3 0 1 0 6 0 3 3 0 1 0-6 0z"/>
      <path stroke="rgba(26, 26, 26, 1)" stroke-width="2" d="m6 330 12 12h36"/>
      <path fill="rgba(26, 26, 26, 1)" d="M3 330a3 3 0 1 0 6 0 3 3 0 1 0-6 0zm48 12a3 3 0 1 0 6 0 3 3 0 1 0-6 0z"/>
      <path stroke="rgba(26, 26, 26, 1)" stroke-width="2" d="m150 234-12-12h-24"/>
      <path fill="rgba(26, 26, 26, 1)" d="M147 234a3 3 0 1 0 6 0 3 3 0 1 0-6 0zm-36-12a3 3 0 1 0 6 0 3 3 0 1 0-6 0z"/>
      <path stroke="rgba(26, 26, 26, 1)" stroke-width="2" d="M342 150v-12l12-12"/>
      <path fill="rgba(26, 26, 26, 1)" d="M339 150a3 3 0 1 0 6 0 3 3 0 1 0-6 0zm12-24a3 3 0 1 0 6 0 3 3 0 1 0-6 0z"/>
      <path stroke="rgba(26, 26, 26, 1)" stroke-width="2" d="M210 30 186 6h-24"/>
      <path fill="rgba(26, 26, 26, 1)" d="M207 30a3 3 0 1 0 6 0 3 3 0 1 0-6 0zM159 6a3 3 0 1 0 6 0 3 3 0 1 0-6 0z"/>
      <path stroke="rgba(26, 26, 26, 1)" stroke-width="2" d="M114 6v36"/>
      <path fill="rgba(26, 26, 26, 1)" d="M111 6a3 3 0 1 0 6 0 3 3 0 1 0-6 0zm0 36a3 3 0 1 0 6 0 3 3 0 1 0-6 0z"/>
      <path stroke="rgba(26, 26, 26, 1)" stroke-width="2" d="M138 306v-24"/>
      <path fill="rgba(26, 26, 26, 1)" d="M135 306a3 3 0 1 0 6 0 3 3 0 1 0-6 0zm0-24a3 3 0 1 0 6 0 3 3 0 1 0-6 0z"/>
      <path stroke="rgba(26, 26, 26, 1)" stroke-width="2" d="M234 174v-48"/>
      <path fill="rgba(26, 26, 26, 1)" d="M231 174a3 3 0 1 0 6 0 3 3 0 1 0-6 0zm0-48a3 3 0 1 0 6 0 3 3 0 1 0-6 0z"/>
      <path stroke="rgba(26, 26, 26, 1)" stroke-width="2" d="M54 78V54"/>
      <path fill="rgba(26, 26, 26, 1)" d="M51 78a3 3 0 1 0 6 0 3 3 0 1 0-6 0zm0-24a3 3 0 1 0 6 0 3 3 0 1 0-6 0z"/>
      <path stroke="rgba(26, 26, 26, 1)" stroke-width="2" d="M18 162v12L6 186"/>
      <path fill="rgba(26, 26, 26, 1)" d="M15 162a3 3 0 1 0 6 0 3 3 0 1 0-6 0zM3 186a3 3 0 1 0 6 0 3 3 0 1 0-6 0z"/>
    </g>
  </g>
  <defs>
    <mask id="a">
      <path fill="#fff" d="M0 0h360v360H0z"/>
    </mask>
    <mask id="b">
      <path fill="#fff" d="M0 0h360v360H0z"/>
      <path d="M4.5 282a1.5 1.5 0 1 0 3 0 1.5 1.5 0 1 0-3 0zm228-12a1.5 1.5 0 1 0 3 0 1.5 1.5 0 1 0-3 0zm0-228a1.5 1.5 0 1 0 3 0 1.5 1.5 0 1 0-3 0zM4.5 270a1.5 1.5 0 1 0 3 0 1.5 1.5 0 1 0-3 0zm132 60a1.5 1.5 0 1 0 3 0 1.5 1.5 0 1 0-3 0zm-24-144a1.5 1.5 0 1 0 3 0 1.5 1.5 0 1 0-3 0zm108-96a1.5 1.5 0 1 0 3 0 1.5 1.5 0 1 0-3 0zm48 168a1.5 1.5 0 1 0 3 0 1.5 1.5 0 1 0-3 0zM28.5 90a1.5 1.5 0 1 0 3 0 1.5 1.5 0 1 0-3 0zM4.5 6a1.5 1.5 0 1 0 3 0 1.5 1.5 0 1 0-3 0zm336 84a1.5 1.5 0 1 0 3 0 1.5 1.5 0 1 0-3 0zm-132-12a1.5 1.5 0 1 0 3 0 1.5 1.5 0 1 0-3 0zm84 180a1.5 1.5 0 1 0 3 0 1.5 1.5 0 1 0-3 0zm60-156a1.5 1.5 0 1 0 3 0 1.5 1.5 0 1 0-3 0zm0 96a1.5 1.5 0 1 0 3 0 1.5 1.5 0 1 0-3 0zm-24 156a1.5 1.5 0 1 0 3 0 1.5 1.5 0 1 0-3 0zm-72-144a1.5 1.5 0 1 0 3 0 1.5 1.5 0 1 0-3 0zm72-108a1.5 1.5 0 1 0 3 0 1.5 1.5 0 1 0-3 0zm-168 168a1.5 1.5 0 1 0 3 0 1.5 1.5 0 1 0-3 0zm48 12a1.5 1.5 0 1 0 3 0 1.5 1.5 0 1 0-3 0zm12 72a1.5 1.5 0 1 0 3 0 1.5 1.5 0 1 0-3 0zm96 0a1.5 1.5 0 1 0 3 0 1.5 1.5 0 1 0-3 0zm-264-228a1.5 1.5 0 1 0 3 0 1.5 1.5 0 1 0-3 0zm72-120a1.5 1.5 0 1 0 3 0 1.5 1.5 0 1 0-3 0zm144 288a1.5 1.5 0 1 0 3 0 1.5 1.5 0 1 0-3 0zm-36-12a1.5 1.5 0 1 0 3 0 1.5 1.5 0 1 0-3 0zm-84 12a1.5 1.5 0 1 0 3 0 1.5 1.5 0 1 0-3 0zm-36-84a1.5 1.5 0 1 0 3 0 1.5 1.5 0 1 0-3 0zm0-72a1.5 1.5 0 1 0 3 0 1.5 1.5 0 1 0-3 0zm-108 0a1.5 1.5 0 1 0 3 0 1.5 1.5 0 1 0-3 0zm300 12a1.5 1.5 0 1 0 3 0 1.5 1.5 0 1 0-3 0zm48-36a1.5 1.5 0 1 0 3 0 1.5 1.5 0 1 0-3 0zm0 156a1.5 1.5 0 1 0 3 0 1.5 1.5 0 1 0-3 0zm0-60a1.5 1.5 0 1 0 3 0 1.5 1.5 0 1 0-3 0zm-264-48a1.5 1.5 0 1 0 3 0 1.5 1.5 0 1 0-3 0zm-84 96a1.5 1.5 0 1 0 3 0 1.5 1.5 0 1 0-3 0zm12 96a1.5 1.5 0 1 0 3 0 1.5 1.5 0 1 0-3 0zm48 0a1.5 1.5 0 1 0 3 0 1.5 1.5 0 1 0-3 0zm144-300a1.5 1.5 0 1 0 3 0 1.5 1.5 0 1 0-3 0zm12-48a1.5 1.5 0 1 0 3 0 1.5 1.5 0 1 0-3 0zm-168 168a1.5 1.5 0 1 0 3 0 1.5 1.5 0 1 0-3 0zm-48 60a1.5 1.5 0 1 0 3 0 1.5 1.5 0 1 0-3 0zm336-228a1.5 1.5 0 1 0 3 0 1.5 1.5 0 1 0-3 0zm-108 48a1.5 1.5 0 1 0 3 0 1.5 1.5 0 1 0-3 0zm-192 216a1.5 1.5 0 1 0 3 0 1.5 1.5 0 1 0-3 0zm48-60a1.5 1.5 0 1 0 3 0 1.5 1.5 0 1 0-3 0zm-72-120a1.5 1.5 0 1 0 3 0 1.5 1.5 0 1 0-3 0zm-12-60a1.5 1.5 0 1 0 3 0 1.5 1.5 0 1 0-3 0zm84 216a1.5 1.5 0 1 0 3 0 1.5 1.5 0 1 0-3 0zm108 24a1.5 1.5 0 1 0 3 0 1.5 1.5 0 1 0-3 0zm-156-144a1.5 1.5 0 1 0 3 0 1.5 1.5 0 1 0-3 0zm-36-36a1.5 1.5 0 1 0 3 0 1.5 1.5 0 1 0-3 0zm204 264a1.5 1.5 0 1 0 3 0 1.5 1.5 0 1 0-3 0zm-12-36a1.5 1.5 0 1 0 3 0 1.5 1.5 0 1 0-3 0zm72-96a1.5 1.5 0 1 0 3 0 1.5 1.5 0 1 0-3 0zm0-132a1.5 1.5 0 1 0 3 0 1.5 1.5 0 1 0-3 0zm-72 96a1.5 1.5 0 1 0 3 0 1.5 1.5 0 1 0-3 0zm24-84a1.5 1.5 0 1 0 3 0 1.5 1.5 0 1 0-3 0zm36-72a1.5 1.5 0 1 0 3 0 1.5 1.5 0 1 0-3 0zm72-24a1.5 1.5 0 1 0 3 0 1.5 1.5 0 1 0-3 0zm-204 12a1.5 1.5 0 1 0 3 0 1.5 1.5 0 1 0-3 0zm-96 84a1.5 1.5 0 1 0 3 0 1.5 1.5 0 1 0-3 0zm252 120a1.5 1.5 0 1 0 3 0 1.5 1.5 0 1 0-3 0zm0 120a1.5 1.5 0 1 0 3 0 1.5 1.5 0 1 0-3 0zm24-60a1.5 1.5 0 1 0 3 0 1.5 1.5 0 1 0-3 0zm12 60a1.5 1.5 0 1 0 3 0 1.5 1.5 0 1 0-3 0zm-72-192a1.5 1.5 0 1 0 3 0 1.5 1.5 0 1 0-3 0zm12-60a1.5 1.5 0 1 0 3 0 1.5 1.5 0 1 0-3 0zm-216 84a1.5 1.5 0 1 0 3 0 1.5 1.5 0 1 0-3 0zm-36 48a1.5 1.5 0 1 0 3 0 1.5 1.5 0 1 0-3 0zm288-96a1.5 1.5 0 1 0 3 0 1.5 1.5 0 1 0-3 0zm24-12a1.5 1.5 0 1 0 3 0 1.5 1.5 0 1 0-3 0zm-264-12a1.5 1.5 0 1 0 3 0 1.5 1.5 0 1 0-3 0zm-12-96a1.5 1.5 0 1 0 3 0 1.5 1.5 0 1 0-3 0zm240 108a1.5 1.5 0 1 0 3 0 1.5 1.5 0 1 0-3 0zm0 96a1.5 1.5 0 1 0 3 0 1.5 1.5 0 1 0-3 0zM76.5 18a1.5 1.5 0 1 0 3 0 1.5 1.5 0 1 0-3 0zm0 84a1.5 1.5 0 1 0 3 0 1.5 1.5 0 1 0-3 0zm168 132a1.5 1.5 0 1 0 3 0 1.5 1.5 0 1 0-3 0zm-36-48a1.5 1.5 0 1 0 3 0 1.5 1.5 0 1 0-3 0zm-48-12a1.5 1.5 0 1 0 3 0 1.5 1.5 0 1 0-3 0zm48-72a1.5 1.5 0 1 0 3 0 1.5 1.5 0 1 0-3 0zm-108-96a1.5 1.5 0 1 0 3 0 1.5 1.5 0 1 0-3 0zm0 96a1.5 1.5 0 1 0 3 0 1.5 1.5 0 1 0-3 0zm60-36a1.5 1.5 0 1 0 3 0 1.5 1.5 0 1 0-3 0zm-24-36a1.5 1.5 0 1 0 3 0 1.5 1.5 0 1 0-3 0zm96 0a1.5 1.5 0 1 0 3 0 1.5 1.5 0 1 0-3 0zm12-24a1.5 1.5 0 1 0 3 0 1.5 1.5 0 1 0-3 0zm-216 168a1.5 1.5 0 1 0 3 0 1.5 1.5 0 1 0-3 0zm-24 36a1.5 1.5 0 1 0 3 0 1.5 1.5 0 1 0-3 0zm228 12a1.5 1.5 0 1 0 3 0 1.5 1.5 0 1 0-3 0zm-36-84a1.5 1.5 0 1 0 3 0 1.5 1.5 0 1 0-3 0zm156-72a1.5 1.5 0 1 0 3 0 1.5 1.5 0 1 0-3 0zm0-60a1.5 1.5 0 1 0 3 0 1.5 1.5 0 1 0-3 0zm-24 144a1.5 1.5 0 1 0 3 0 1.5 1.5 0 1 0-3 0zm-12 132a1.5 1.5 0 1 0 3 0 1.5 1.5 0 1 0-3 0zm-192 12a1.5 1.5 0 1 0 3 0 1.5 1.5 0 1 0-3 0zm-24-48a1.5 1.5 0 1 0 3 0 1.5 1.5 0 1 0-3 0zm240 84a1.5 1.5 0 1 0 3 0 1.5 1.5 0 1 0-3 0zm12 24a1.5 1.5 0 1 0 3 0 1.5 1.5 0 1 0-3 0zm-108-36a1.5 1.5 0 1 0 3 0 1.5 1.5 0 1 0-3 0zm24-12a1.5 1.5 0 1 0 3 0 1.5 1.5 0 1 0-3 0zm-180-48a1.5 1.5 0 1 0 3 0 1.5 1.5 0 1 0-3 0zm24 60a1.5 1.5 0 1 0 3 0 1.5 1.5 0 1 0-3 0zm-36-60a1.5 1.5 0 1 0 3 0 1.5 1.5 0 1 0-3 0zm24 60a1.5 1.5 0 1 0 3 0 1.5 1.5 0 1 0-3 0zm-12-24a1.5 1.5 0 1 0 3 0 1.5 1.5 0 1 0-3 0zm-24-36a1.5 1.5 0 1 0 3 0 1.5 1.5 0 1 0-3 0zm120-240a1.5 1.5 0 1 0 3 0 1.5 1.5 0 1 0-3 0zm24 24a1.5 1.5 0 1 0 3 0 1.5 1.5 0 1 0-3 0zm-120-12a1.5 1.5 0 1 0 3 0 1.5 1.5 0 1 0-3 0zm0 72a1.5 1.5 0 1 0 3 0 1.5 1.5 0 1 0-3 0zm264 60a1.5 1.5 0 1 0 3 0 1.5 1.5 0 1 0-3 0zm-36 0a1.5 1.5 0 1 0 3 0 1.5 1.5 0 1 0-3 0zM28.5 6a1.5 1.5 0 1 0 3 0 1.5 1.5 0 1 0-3 0zm0 24a1.5 1.5 0 1 0 3 0 1.5 1.5 0 1 0-3 0zm156 120a1.5 1.5 0 1 0 3 0 1.5 1.5 0 1 0-3 0zm12 24a1.5 1.5 0 1 0 3 0 1.5 1.5 0 1 0-3 0zm108 84a1.5 1.5 0 1 0 3 0 1.5 1.5 0 1 0-3 0zm-12 84a1.5 1.5 0 1 0 3 0 1.5 1.5 0 1 0-3 0zm-264-60a1.5 1.5 0 1 0 3 0 1.5 1.5 0 1 0-3 0zm60 48a1.5 1.5 0 1 0 3 0 1.5 1.5 0 1 0-3 0zm264-288a1.5 1.5 0 1 0 3 0 1.5 1.5 0 1 0-3 0zm-36 24a1.5 1.5 0 1 0 3 0 1.5 1.5 0 1 0-3 0zm-24-60a1.5 1.5 0 1 0 3 0 1.5 1.5 0 1 0-3 0zm-36 12a1.5 1.5 0 1 0 3 0 1.5 1.5 0 1 0-3 0zm-96 336a1.5 1.5 0 1 0 3 0 1.5 1.5 0 1 0-3 0zm36-24a1.5 1.5 0 1 0 3 0 1.5 1.5 0 1 0-3 0zm-48-276a1.5 1.5 0 1 0 3 0 1.5 1.5 0 1 0-3 0zm-24 36a1.5 1.5 0 1 0 3 0 1.5 1.5 0 1 0-3 0zm24 156a1.5 1.5 0 1 0 3 0 1.5 1.5 0 1 0-3 0zm36 12a1.5 1.5 0 1 0 3 0 1.5 1.5 0 1 0-3 0zM64.5 6a1.5 1.5 0 1 0 3 0 1.5 1.5 0 1 0-3 0zm24 0a1.5 1.5 0 1 0 3 0 1.5 1.5 0 1 0-3 0zm-12 144a1.5 1.5 0 1 0 3 0 1.5 1.5 0 1 0-3 0zm-36 12a1.5 1.5 0 1 0 3 0 1.5 1.5 0 1 0-3 0zm264 168a1.5 1.5 0 1 0 3 0 1.5 1.5 0 1 0-3 0zm0-36a1.5 1.5 0 1 0 3 0 1.5 1.5 0 1 0-3 0zm-276-168a1.5 1.5 0 1 0 3 0 1.5 1.5 0 1 0-3 0zm-24-24a1.5 1.5 0 1 0 3 0 1.5 1.5 0 1 0-3 0zm132-12a1.5 1.5 0 1 0 3 0 1.5 1.5 0 1 0-3 0zm0-24a1.5 1.5 0 1 0 3 0 1.5 1.5 0 1 0-3 0zm-72-36a1.5 1.5 0 1 0 3 0 1.5 1.5 0 1 0-3 0zm-12-24a1.5 1.5 0 1 0 3 0 1.5 1.5 0 1 0-3 0zm192 336a1.5 1.5 0 1 0 3 0 1.5 1.5 0 1 0-3 0zm-24-48a1.5 1.5 0 1 0 3 0 1.5 1.5 0 1 0-3 0zm-216 36a1.5 1.5 0 1 0 3 0 1.5 1.5 0 1 0-3 0zm48 12a1.5 1.5 0 1 0 3 0 1.5 1.5 0 1 0-3 0zm96-108a1.5 1.5 0 1 0 3 0 1.5 1.5 0 1 0-3 0zm-36-12a1.5 1.5 0 1 0 3 0 1.5 1.5 0 1 0-3 0zm228-72a1.5 1.5 0 1 0 3 0 1.5 1.5 0 1 0-3 0zm12-24a1.5 1.5 0 1 0 3 0 1.5 1.5 0 1 0-3 0zm-144-96a1.5 1.5 0 1 0 3 0 1.5 1.5 0 1 0-3 0zm-48-24a1.5 1.5 0 1 0 3 0 1.5 1.5 0 1 0-3 0zm-48 0a1.5 1.5 0 1 0 3 0 1.5 1.5 0 1 0-3 0zm0 36a1.5 1.5 0 1 0 3 0 1.5 1.5 0 1 0-3 0zm24 264a1.5 1.5 0 1 0 3 0 1.5 1.5 0 1 0-3 0zm0-24a1.5 1.5 0 1 0 3 0 1.5 1.5 0 1 0-3 0zm96-108a1.5 1.5 0 1 0 3 0 1.5 1.5 0 1 0-3 0zm0-48a1.5 1.5 0 1 0 3 0 1.5 1.5 0 1 0-3 0zm-180-48a1.5 1.5 0 1 0 3 0 1.5 1.5 0 1 0-3 0zm0-24a1.5 1.5 0 1 0 3 0 1.5 1.5 0 1 0-3 0zm-36 108a1.5 1.5 0 1 0 3 0 1.5 1.5 0 1 0-3 0zm-12 24a1.5 1.5 0 1 0 3 0 1.5 1.5 0 1 0-3 0z"/>
    </mask>
  </defs>
</svg>
