<svg width="276" height="255" viewBox="0 0 276 255" fill="none" xmlns="http://www.w3.org/2000/svg">
<path fill-rule="evenodd" clip-rule="evenodd" d="M232.864 -1.1558e-05L231.957 4.67294L218.65 2.76287L232.864 -1.1558e-05ZM60.853 55.8474L48.1978 58.3073L44.6381 39.9938L44.638 39.9938L44 36.7115L64.497 32.7273L72.3389 31.203L76.2146 38.1884L135.736 145.468L149.607 73.4108L171.348 76.8542L152.546 174.532L129.218 179.067L60.853 55.8474ZM168.643 215.272L174.864 183.241L196.606 186.685L188.825 226.751L187.41 234.035L180.126 235.451L125.467 246.076L117.653 247.595L113.767 240.647L67.5914 158.079L54.1626 88.9932L129.083 222.961L168.643 215.272Z" fill="white"/>
<path d="M163.423 60.1563L170.789 23.272L218.957 13.9091L188.696 170.11" stroke="#7AE626" stroke-width="22"/>
<path d="M11 143.531V243.063H56.9375V220.094" stroke="#35BAE4" stroke-width="22"/>
<path d="M11 128.219V44H56.9375V204.781" stroke="white" stroke-width="22"/>
</svg>
